<?xml version="1.0" encoding="UTF-8" standalone="no"?>
<svg
   xmlns:dc="http://purl.org/dc/elements/1.1/"
   xmlns:cc="http://creativecommons.org/ns#"
   xmlns:rdf="http://www.w3.org/1999/02/22-rdf-syntax-ns#"
   xmlns:svg="http://www.w3.org/2000/svg"
   xmlns="http://www.w3.org/2000/svg"
   xmlns:xlink="http://www.w3.org/1999/xlink"
   version="1.1"
   id="svg4181"
   viewBox="0 0 372.62297 144.16654"
   height="40.687mm"
   width="105.16248mm">
  <defs
     id="defs4183">
    <linearGradient
       id="linearGradient4818">
      <stop
         id="stop4820"
         offset="0"
         style="stop-color:#2a848e;stop-opacity:1" />
      <stop
         style="stop-color:#83b4b5;stop-opacity:1"
         offset="0.51716304"
         id="stop4826" />
      <stop
         id="stop4822"
         offset="1"
         style="stop-color:#b7c9c6;stop-opacity:1" />
    </linearGradient>
    <linearGradient
       gradientTransform="matrix(0,1,-1,0,553.07648,149.90305)"
       gradientUnits="userSpaceOnUse"
       y2="351.64792"
       x2="255.74998"
       y1="351.64792"
       x1="147.10713"
       id="linearGradient4824"
       xlink:href="#linearGradient4818" />
  </defs>
  <metadata
     id="metadata4186">
    <rdf:RDF>
      <cc:Work
         rdf:about="">
        <dc:format>image/svg+xml</dc:format>
        <dc:type
           rdf:resource="http://purl.org/dc/dcmitype/StillImage" />
        <dc:title></dc:title>
      </cc:Work>
    </rdf:RDF>
  </metadata>
  <g
     transform="translate(-129.4457,-279.29336)"
     id="layer1">
    <path
       id="path4813"
       d="m 201.42773,297.81836 a 53.512959,53.512959 0 0 0 -53.43359,51.94531 l 66.49414,0 a 34.417076,36.404156 0 0 1 23.72656,-10.05469 34.417076,36.404156 0 0 1 16.16602,4.28516 53.512959,53.512959 0 0 0 -52.95313,-46.17578 z m -53.45703,55.08008 a 53.512959,53.512959 0 0 0 1.23828,9.83008 l 57.03125,0 a 34.417076,36.404156 0 0 1 5.47852,-9.83008 l -63.74805,0 z m 2.05664,12.96484 a 53.512959,53.512959 0 0 0 3.86328,9.82813 l 49.92579,0 a 34.417076,36.404156 0 0 1 1.39453,-9.82813 l -55.1836,0 z m 5.66407,12.96289 a 53.512959,53.512959 0 0 0 7.64257,9.82813 l 42.59961,0 a 34.417076,36.404156 0 0 1 -2.03515,-9.82813 l -48.20703,0 z m 10.94531,12.96289 a 53.512959,53.512959 0 0 0 34.79101,13.05469 53.512959,53.512959 0 0 0 13.61524,-1.875 34.417076,36.404156 0 0 1 -7.85547,-11.17969 l -40.55078,0 z"
       style="fill:url(#linearGradient4824);fill-opacity:1;stroke:#2a848e;stroke-width:1.61693835;stroke-linejoin:round;stroke-miterlimit:4;stroke-dasharray:none;stroke-opacity:1" />
    <text
       id="text4809"
       y="403.37967"
       x="207.44247"
       style="font-style:normal;font-weight:normal;font-size:76.35390472px;line-height:125%;font-family:sans-serif;letter-spacing:0px;word-spacing:0px;fill:#bfac82;fill-opacity:1;stroke:#a08852;stroke-width:2.86327124;stroke-linecap:butt;stroke-linejoin:miter;stroke-miterlimit:4;stroke-dasharray:none;stroke-opacity:1"
       xml:space="preserve"><tspan
         style="font-style:normal;font-variant:normal;font-weight:normal;font-stretch:normal;font-family:'Arial Rounded MT Bold';-inkscape-font-specification:'Arial Rounded MT Bold, ';fill:#bfac82;fill-opacity:1;stroke:#a08852;stroke-width:2.86327124;stroke-miterlimit:4;stroke-dasharray:none;stroke-opacity:1"
         y="403.37967"
         x="207.44247"
         id="tspan4811">CREAM</tspan></text>
  </g>
</svg>
