<?xml version="1.0" encoding="UTF-8" standalone="no"?>
<svg
   xmlns:osb="http://www.openswatchbook.org/uri/2009/osb"
   xmlns:dc="http://purl.org/dc/elements/1.1/"
   xmlns:cc="http://creativecommons.org/ns#"
   xmlns:rdf="http://www.w3.org/1999/02/22-rdf-syntax-ns#"
   xmlns:svg="http://www.w3.org/2000/svg"
   xmlns="http://www.w3.org/2000/svg"
   xmlns:xlink="http://www.w3.org/1999/xlink"
   version="1.1"
   id="svg2"
   viewBox="0 0 464.54124 190.21519"
   height="190.21519"
   width="464.54123">
  <defs
     id="defs4">
    <linearGradient
       id="linearGradient8411">
      <stop
         id="stop8413"
         offset="0"
         style="stop-color:#003399;stop-opacity:1;" />
      <stop
         style="stop-color:#2457bd;stop-opacity:1;"
         offset="0.54631329"
         id="stop8487" />
      <stop
         id="stop8415"
         offset="1"
         style="stop-color:#87aade;stop-opacity:1" />
    </linearGradient>
    <linearGradient
       id="linearGradient8403">
      <stop
         style="stop-color:#228b22;stop-opacity:1;"
         offset="0"
         id="stop8405" />
      <stop
         id="stop8407"
         offset="0.45455441"
         style="stop-color:#649a4a;stop-opacity:1;" />
      <stop
         style="stop-color:#d2b48c;stop-opacity:1"
         offset="1"
         id="stop8409" />
    </linearGradient>
    <linearGradient
       id="linearGradient8383">
      <stop
         id="stop8385"
         offset="0"
         style="stop-color:#228b22;stop-opacity:1;" />
      <stop
         style="stop-color:#649a4a;stop-opacity:1;"
         offset="0.49999973"
         id="stop8391" />
      <stop
         id="stop8387"
         offset="1"
         style="stop-color:#d2b48c;stop-opacity:1" />
    </linearGradient>
    <linearGradient
       id="linearGradient5668"
       osb:paint="solid">
      <stop
         style="stop-color:#1e90ff;stop-opacity:1;"
         offset="0"
         id="stop5670" />
    </linearGradient>
    <linearGradient
       id="linearGradient4206">
      <stop
         style="stop-color:#00bfff;stop-opacity:1"
         offset="0"
         id="stop4208" />
      <stop
         id="stop4214"
         offset="0.49294731"
         style="stop-color:#b0eaf1;stop-opacity:1;" />
      <stop
         style="stop-color:#d7f4ee;stop-opacity:1"
         offset="1"
         id="stop4210" />
    </linearGradient>
    <linearGradient
       xlink:href="#linearGradient4206"
       id="linearGradient4212"
       x1="179.10646"
       y1="247.54926"
       x2="179.10646"
       y2="379.81293"
       gradientUnits="userSpaceOnUse"
       gradientTransform="matrix(0.79896312,0,0,0.70000804,36.007005,113.88152)" />
    <linearGradient
       gradientUnits="userSpaceOnUse"
       y2="379.2692"
       x2="209.54021"
       y1="353.63727"
       x1="209.54021"
       id="linearGradient8389"
       xlink:href="#linearGradient8383" />
    <linearGradient
       gradientUnits="userSpaceOnUse"
       y2="383.71848"
       x2="188.0018"
       y1="321.08444"
       x1="140.49295"
       id="linearGradient8401"
       xlink:href="#linearGradient8403" />
    <linearGradient
       gradientUnits="userSpaceOnUse"
       y2="366.94452"
       x2="179.18127"
       y1="438.18723"
       x1="178.89355"
       id="linearGradient8417"
       xlink:href="#linearGradient8411" />
    <filter
       height="1.2068169"
       y="-0.10340846"
       width="1.0860958"
       x="-0.04304789"
       id="filter8483"
       style="color-interpolation-filters:sRGB">
      <feGaussianBlur
         id="feGaussianBlur8485"
         stdDeviation="3.0467114" />
    </filter>
    <clipPath
       id="clipPath4892"
       clipPathUnits="userSpaceOnUse">
      <circle
         r="75"
         cy="364.24155"
         cx="176.1994"
         id="circle4894"
         style="fill:none;fill-opacity:1;stroke:#000000;stroke-width:0.55335504;stroke-linejoin:round;stroke-miterlimit:4;stroke-dasharray:none;stroke-opacity:1" />
    </clipPath>
    <clipPath
       id="clipPath4905"
       clipPathUnits="userSpaceOnUse">
      <path
         transform="translate(-71.921214,-0.89289626)"
         clip-path="url(#clipPath4892)"
         id="path4907"
         d="m 97.721792,286.93242 0,142.75024 124.455818,0 c -18.48243,-2.36869 -29.41967,-15.6629 -30.14859,-44.24414 -0.82406,-32.31135 17.78315,-44.16212 38.41211,-44.81144 8.66819,-0.27284 15.88729,1.93912 23.04297,7.46965 l 0,-61.16431 z"
         style="fill:#f9f9f9;fill-opacity:0.51123597;stroke:none;stroke-width:2.5;stroke-linejoin:round;stroke-miterlimit:4;stroke-dasharray:none;stroke-opacity:1" />
    </clipPath>
  </defs>
  <metadata
     id="metadata7">
    <rdf:RDF>
      <cc:Work
         rdf:about="">
        <dc:format>image/svg+xml</dc:format>
        <dc:type
           rdf:resource="http://purl.org/dc/dcmitype/StillImage" />
        <dc:title></dc:title>
      </cc:Work>
    </rdf:RDF>
  </metadata>
  <g
     transform="translate(-81.721792,-273.038)"
     id="layer1">
    <g
       clip-path="url(#clipPath4905)"
       transform="translate(71.921214,0.89289626)"
       id="g8503">
      <g
         id="g8489"
         clip-path="none"
         transform="matrix(1.0025708,0,0,1.0025708,-75.288724,0.01849726)">
        <rect
           style="fill:url(#linearGradient4212);fill-opacity:1;stroke:none;stroke-width:0.55820894;stroke-linejoin:round;stroke-miterlimit:4;stroke-dasharray:none;stroke-opacity:1"
           id="rect4204"
           width="151.15051"
           height="92.146042"
           x="103.5312"
           y="287.38779" />
        <g
           id="g4222"
           transform="matrix(0.92539298,0,0,1.2157688,14.524847,-88.393814)">
          <path
             id="path4220"
             d="m 137.42815,383.18148 c 0,0 35.44226,-29.24938 74.25217,-29.24938 38.80991,0 69.95778,29.24938 69.95778,29.24938"
             style="fill:url(#linearGradient8389);fill-opacity:1;fill-rule:evenodd;stroke:#006400;stroke-width:0.58960909;stroke-linecap:butt;stroke-linejoin:miter;stroke-miterlimit:4;stroke-dasharray:none;stroke-opacity:1" />
          <path
             id="path4218"
             d="m 96.432223,382.90694 0,-43.27962 c 30.728407,-0.25174 60.477397,11.6799 82.380687,24.1994 13.41748,7.66917 40.15711,18.80252 55.51902,19.08022"
             style="fill:url(#linearGradient8401);fill-opacity:1;fill-rule:evenodd;stroke:#006400;stroke-width:0.5;stroke-linecap:butt;stroke-linejoin:miter;stroke-miterlimit:4;stroke-dasharray:none;stroke-opacity:1" />
          <g
             id="g5305"
             transform="matrix(0.02334206,0,0,-0.01776701,139.62211,367.52831)">
            <g
               id="g4850"
               transform="scale(0.115653,0.115653)">
              <path
                 d="m 15993.2,2162.34 c -15.7,5.79 -30.2,15.47 -45.6,22.13 -46.1,19.71 -87.9,46.35 -129,74.79 -65.3,45.05 -124.4,100.91 -169.6,166.28 -66.6,96.23 -76.5,209.16 -78.5,322.77 -2.1,111.8 -9.4,223.6 -7.3,335.41 4.2,216.42 8.2,312.48 12.4,689.99 0.8,0.26 1.5,2.42 2.1,7.52 15.3,128.66 -28.1,269.26 54.2,379.24 56.9,76.18 114.7,152.36 184,217.38 69.3,65.02 392.1,424.89 484.1,448.75 -9.4,-2.42 -85.8,79.64 -97.3,91.91 -14.3,15.48 -23.8,37.7 -38.3,51.97 -22.5,21.97 -30.2,12.28 -48.6,-17.29 -40.7,-65.63 -332.3,-430.26 -382.8,-488.71 -18.9,-21.78 -37.7,-43.49 -56.6,-65.28 -12,-13.92 -24,-27.84 -38.4,-39.25 -29.9,-23.61 -75.5,-52.14 -112.1,-62.6 -18,-5.19 -37.8,-7.01 -55.3,-0.18 -35.9,14.01 -49,57.24 -55.8,95.12 -17.9,100.56 -23,202.84 -24.5,304.79 -0.7,46.17 -1.3,89.75 7.2,134.36 5.3,28.63 15.4,79.04 -6.8,103.42 -16,17.64 -43.7,8.65 -65.4,7.43 -23.5,-1.29 -47.1,-2.33 -70.3,-4.41 -80.1,-7 -39.1,-141.8 -32.2,-190.14 20.2,-139.03 40.2,-279.88 23.5,-419.35 -4,-33.55 -17.9,-74.54 -51.5,-78 -17.8,-1.81 -34.5,8.48 -48.9,19.03 -108.7,79.2 -184.2,194.72 -257.2,307.55 -21.3,32.95 -158.9,173.8 -180.2,206.75 -12.5,19.28 -37.4,78.85 -58.8,87.24 -39.6,15.48 -116.4,-61.13 -131.2,-91.83 -18,-37.26 9.6,-39.08 35.7,-61.73 39,-33.72 190.3,-182.27 225.7,-219.71 80.1,-84.48 157.6,-172.59 216.2,-273.15 58.6,-100.56 97.8,-214.95 95.5,-331.33 l 2.1,-1.73 c -3.7,-322.61 6.1,-431.21 29.1,-609.93 29,-224.64 -15.3,-430.08 -29.3,-653.16 -3.7,-58.02 -6.3,-117.86 -26,-173.11 -22.5,-62.86 -63.4,-95.8 -112.6,-137.13 -35.7,-30.01 -74.2,-56.72 -114.7,-79.9 -26.7,-15.22 -54.6,-29.05 -77.7,-49.28 -14,-12.11 -26.1,-26.98 -33.8,-43.58 -4.6,-10.12 5.8,-20.84 16,-16.52 32.6,13.67 87.3,24.99 98.5,27.15 45.6,8.56 91.3,7.61 137.9,8.48 18.3,0.26 36.6,0.6 54.3,4.66 24.5,5.62 46.9,18.16 68.8,30.44 17,9.6 34,19.2 51.1,28.79 -0.5,-0.26 -3.4,-75.48 -6.9,-84.9 -8.5,-23.26 -20.8,-41.6 -26.9,-66.58 -11.4,-46.35 -19,-96.32 -11.1,-143.8 2,-11.93 18.3,-14.61 23.3,-3.54 6.8,14.78 15.7,28.53 26.6,40.64 39,43.58 99.3,63.2 138.9,106.18 10.9,11.93 20,25.33 31.3,37 20.5,21.28 55.8,42.89 82.6,55.17 37.5,17.21 76.3,3.98 115.7,3.89 38.7,-0.17 77.2,2.25 115.4,7.26 22.3,2.86 44.5,6.58 66.8,5.19 49.9,-3.11 92.9,-30.61 138.9,-46.69 47.7,-16.69 90.8,-3.54 141.6,-5.36 8.5,-0.35 17.2,0.61 25.2,3.63 44,16.34 -15.9,23.09 -23.5,25.86"
                 style="fill:#b35825;fill-opacity:1;fill-rule:nonzero;stroke:none"
                 id="path4852" />
            </g>
            <g
               id="g4854"
               transform="scale(0.115653,0.115653)">
              <path
                 d="m 16297.7,4827.04 c -0.3,0.17 -0.7,0.34 -1.1,0.6 -0.7,0.35 -1.4,0.78 -2.3,1.3 -0.6,0.34 -1.1,0.77 -1.7,1.12 -0.9,0.61 -1.8,1.3 -2.7,2.08 -0.8,0.52 -1.5,1.03 -2.2,1.64 -0.9,0.78 -1.9,1.56 -2.8,2.34 -2.3,1.98 -4.7,4.06 -7.3,6.39 -0.3,0.26 -0.5,0.43 -0.8,0.69 -1.6,1.56 -3.3,3.2 -5.2,4.84 -0.2,0.26 -0.6,0.61 -0.9,0.87 -1.9,1.82 -3.8,3.63 -5.8,5.54 -60.4,21.52 -123.2,35.79 -187.3,44.87 -11.2,-15.04 -24.2,-32.16 -38.4,-50.67 -0.5,-0.69 -1,-1.29 -1.5,-1.99 -3.3,-4.32 -6.7,-8.73 -10.2,-13.14 -0.3,-0.52 -0.6,-1.04 -1.1,-1.47 -18.5,-24.04 -38.6,-49.98 -59.6,-76.61 -0.6,-0.86 -1.3,-1.73 -1.9,-2.59 -3.8,-4.85 -7.7,-9.77 -11.5,-14.61 -0.6,-0.7 -1.2,-1.39 -1.7,-2.08 -4,-5.19 -8,-10.29 -12.1,-15.39 -0.2,-0.17 -0.2,-0.35 -0.4,-0.52 -12.9,-16.34 -25.8,-32.68 -38.7,-48.85 -0.2,-0.26 -0.5,-0.61 -0.8,-0.95 -3.4,-4.41 -6.9,-8.74 -10.3,-13.06 -1.4,-1.73 -2.7,-3.46 -4.1,-5.1 -3.2,-3.98 -6.3,-7.96 -9.4,-11.85 -1.5,-1.9 -3,-3.72 -4.5,-5.62 -3.1,-3.89 -6.2,-7.78 -9.3,-11.67 -1.3,-1.73 -2.7,-3.37 -4.1,-5.1 -3.1,-3.89 -6.2,-7.7 -9.2,-11.5 -1.1,-1.39 -2.2,-2.77 -3.4,-4.24 -5.2,-6.57 -10.4,-12.97 -15.5,-19.37 -2.1,-2.5 -4.2,-5.1 -6.2,-7.61 -2.2,-2.76 -4.3,-5.36 -6.5,-8.12 -2,-2.42 -4,-4.93 -6,-7.44 -2.1,-2.51 -4.1,-5.02 -6,-7.52 -2.2,-2.6 -4.3,-5.19 -6.4,-7.7 -1.7,-2.16 -3.4,-4.32 -5.1,-6.4 -2.4,-2.85 -4.6,-5.62 -6.9,-8.38 -1.4,-1.73 -2.7,-3.46 -4,-5.1 -3.6,-4.33 -7,-8.48 -10.2,-12.46 -0.5,-0.6 -1,-1.21 -1.5,-1.81 -2.7,-3.37 -5.4,-6.57 -7.9,-9.69 -1.1,-1.29 -2.1,-2.5 -3.2,-3.8 -1.9,-2.33 -3.7,-4.58 -5.5,-6.75 -1.1,-1.2 -2,-2.42 -3,-3.54 -1.6,-1.99 -3.2,-3.89 -4.6,-5.62 -1,-1.12 -1.8,-2.25 -2.8,-3.29 -1.4,-1.72 -2.8,-3.37 -4.1,-4.84 -0.6,-0.86 -1.4,-1.73 -2,-2.5 -1.8,-2.17 -3.6,-4.16 -5,-5.89 -18.9,-21.78 -37.7,-43.49 -56.6,-65.28 -12,-13.92 -24,-27.84 -38.4,-39.25 -29.9,-23.61 -75.5,-52.14 -112.1,-62.6 -18,-5.19 -37.8,-7.01 -55.3,-0.18 -35.9,14.01 -49,57.24 -55.8,95.12 -17.9,100.56 -23,202.84 -24.5,304.79 -0.7,46.17 -1.3,89.75 7.2,134.36 0.4,2.69 1,5.62 1.5,8.57 0.1,0.43 0.2,0.86 0.3,1.29 0.6,3.2 1.1,6.57 1.7,10.03 0,0.17 0.1,0.43 0.1,0.61 1.1,7.26 2.2,15.04 2.8,22.91 0.9,11.93 0.7,24.13 -1.5,35.02 -0.8,3.63 -1.7,7.18 -3,10.46 -51,4.15 -102.7,10.47 -154.4,15.83 -59.8,-15.48 -35.2,-118.55 -24.9,-172.76 0.3,-1.56 0.5,-3.03 0.9,-4.5 0.1,-0.43 0.2,-0.86 0.2,-1.3 0.2,-1.21 0.4,-2.33 0.7,-3.54 0,-0.52 0.1,-1.13 0.2,-1.64 0.3,-1.65 0.5,-3.2 0.7,-4.68 20.2,-139.03 40.2,-279.88 23.5,-419.35 -4,-33.55 -17.9,-74.54 -51.5,-78 -17.8,-1.81 -34.5,8.48 -48.9,19.03 -108.7,79.2 -184.2,194.72 -257.2,307.55 -21.3,32.95 -158.9,173.8 -180.2,206.75 -12.5,19.28 -37.4,78.85 -58.8,87.24 -39.6,15.48 -116.4,-61.13 -131.2,-91.83 -18,-37.26 9.6,-39.08 35.7,-61.73 39,-33.72 190.3,-182.27 225.7,-219.71 3.2,-3.37 6.3,-6.75 9.5,-10.12 63.7,-0.34 128.7,-35.62 174.1,-83.09 46.1,-48.25 78.4,-107.74 120.2,-159.71 66,-82.22 126.2,-145 153.2,-252.48 11.4,-45.21 37.7,-82.91 48.2,-128.4 14.1,-61.04 19.2,-124.94 17.3,-187.54 -0.9,-34.07 -3.7,-70.47 13.7,-99.78 -7.1,11.93 23.1,96.67 25.5,115.08 5.1,39.35 4.7,78.08 4.8,117.68 0.2,79.47 -4.7,159.53 -2.7,239.34 0.5,21.36 1.4,43.06 8.6,63.12 21,58.62 68.3,48.94 90.5,-3.63 12.5,-29.83 10.1,-63.55 7.5,-95.8 -3.7,-45.14 -7.4,-90.19 -11.1,-135.32 -6.9,-85.43 -5.7,-176.74 -29.8,-258.62 -25.2,-85.78 -8.6,-196.28 -5.9,-284.73 0.4,-10.38 1.8,-22.66 10.7,-27.93 13.5,-7.96 29.1,7.26 35.6,21.44 7.6,16.6 14.2,99.09 35.5,94.77 9.6,-1.99 13.4,-13.92 12.7,-23.7 -1.4,-21.35 2,-40.63 1.9,-62.25 -0.1,-82.49 -0.3,-164.97 -0.5,-247.46 0,-21.79 -0.5,-141.46 -39.5,-138 -25.7,2.33 -11.8,59.92 -12.4,75.48 -1.3,31.04 -4.6,62 -9.9,92.61 -1.5,8.3 -3.2,16.94 -8.7,23.25 -5.6,6.32 -16.1,9.08 -22.4,3.64 -10.1,-8.65 -8.3,-64.16 -9.5,-77.74 -2.4,-27.93 -3.8,-55.85 -4.1,-83.78 -0.8,-57.85 2.8,-115.69 10.8,-172.93 9.1,-65.89 25.7,-129.79 34.8,-196.19 6.6,-47.04 13.1,-94.51 10.3,-141.89 -5.2,-90.1 -45.5,-177.78 -110.3,-240.55 -41.2,-39.86 -91.5,-69.69 -132.2,-110.16 -50.2,-49.72 -83.8,-115.43 -96.4,-184.95 0.2,-1.38 0.2,-2.76 0.5,-4.24 2,-11.93 18.3,-14.61 23.3,-3.54 6.8,14.78 15.7,28.53 26.6,40.64 39,43.58 99.3,63.2 138.9,106.18 10.9,11.93 20,25.33 31.3,37 20.5,21.28 55.8,42.89 82.6,55.17 37.5,17.21 76.3,3.98 115.7,3.89 38.7,-0.17 77.2,2.25 115.4,7.26 22.3,2.86 44.5,6.58 66.8,5.19 49.9,-3.11 92.9,-30.61 138.9,-46.69 47.7,-16.69 90.8,-3.54 141.6,-5.36 8.5,-0.35 17.2,0.61 25.2,3.63 0.9,0.35 1.7,0.61 2.5,0.95 5.8,2.77 10.5,6.32 13.4,11.07 -11.5,9.68 -25.5,8.82 -39.4,13.84 -15.7,5.79 -30.2,15.47 -45.6,22.13 -46.1,19.71 -87.9,46.35 -129,74.79 -65.3,45.05 -124.4,100.91 -169.6,166.28 -66.6,96.23 -76.5,209.16 -78.5,322.77 -2.1,111.8 -9.4,223.6 -7.3,335.41 4.2,216.42 8.2,312.48 12.4,689.99 0.8,0.26 1.5,2.42 2.1,7.52 15.3,128.66 -28.1,269.26 54.2,379.24 56.9,76.18 114.7,152.36 184,217.38 69.3,65.02 392.1,424.89 484.1,448.75 -0.5,-0.08 -1.4,0.09 -2.3,0.44"
                 style="fill:#813b1a;fill-opacity:1;fill-rule:nonzero;stroke:none"
                 id="path4856" />
            </g>
            <g
               id="g4858"
               transform="scale(0.107848,0.107848)">
              <path
                 d="m 16273.4,2776.12 c 8.8,67.78 2.9,136.48 1.1,204.73 -2.4,92.82 25.5,168.94 17.6,261.38 -8.8,103.11 -0.7,202.7 0.9,306.36 0.7,40.8 1.3,81.78 -4.6,122.21 -2.1,14.56 -5.2,28.93 -8.1,43.39 -20.6,99.03 -13,193.79 -18.4,295.05 -4.6,89.01 -16,179.88 -56.7,259.15 -12.3,24.11 -27.2,46.83 -42.2,69.46 14.1,-53.23 21.7,-107.84 20.7,-162.92 l 2.3,-1.85 c -4,-345.95 6.4,-462.41 31.1,-654.07 31.2,-240.89 -16.4,-461.2 -31.4,-700.42 -3.9,-62.22 -6.7,-126.39 -27.8,-185.64 -24.2,-67.41 -68,-102.73 -120.8,-147.05 -1.3,-1.12 -2.7,-2.14 -4,-3.25 119.7,58.97 222.8,157.72 240.3,293.47"
                 style="fill:#e27839;fill-opacity:1;fill-rule:nonzero;stroke:none"
                 id="path4860" />
            </g>
            <g
               id="g4862"
               transform="scale(0.125571,0.125571)">
              <path
                 d="m 15962.3,5816.22 c 125.1,215.9 -130.8,315.04 -130.8,315.04 64.1,93.34 52.5,437.61 -315,565.9 -184.1,64.26 -321.7,0.56 -413.2,-79.08 l 0,0 c -16.6,141.99 -161.7,162.3 -161.7,162.3 -178.3,68.17 -246.5,-56.86 -246.5,-56.86 0,0 43.2,167.87 -63,229.95 -139,81.31 -246.5,-36.76 -246.5,-36.76 0,0 -68.2,403.94 -645.2,382.96 -576.9,-20.99 -498.3,-687.17 -498.3,-687.17 0,0 -63,157.37 -272.7,36.72 -209.9,-120.65 -100.4,-271.72 -100.4,-271.72 -115.4,44.36 -248.3,41.09 -361.4,-9 -281.4,-124.47 -391.5,-512.38 -251,-779 44.1,-83.78 109.1,-136.18 176.1,-199.33 -33.4,7.49 -77.3,-45.08 -94.3,-69.6 -22,-31.7 -30.6,-71.2 -29.8,-109.34 1.8,-73.82 40.4,-155.77 112,-184.68 -222.6,-193.28 -149.7,-595.52 129,-693.63 137.3,-48.42 282.5,-18.63 413.2,39.34 -7.1,-124.47 88.1,-246.79 210.6,-270.28 122.5,-23.42 260.8,84.97 300.2,203.23 0,0 193.5,-183.72 504.1,-129.73 310.7,53.91 334.7,281.91 334.7,281.91 0,0 216.7,-351.67 649.8,-228 0,0 437.5,140 284.4,498.85 0,0 352.8,-32.18 463.9,266.3 0,0 373,-35.92 482.7,360.83 106.8,386.32 -230.9,460.85 -230.9,460.85"
                 style="fill:#67b730;fill-opacity:1;fill-rule:nonzero;stroke:none"
                 id="path4864" />
            </g>
            <g
               id="g4866"
               transform="scale(0.124258,0.124258)">
              <path
                 d="m 15909.7,5194.18 c -318.9,-323.92 -701,-123.53 -701,-123.53 -265.3,-476.99 -795.9,-118.55 -795.9,-118.55 -336.1,-524.71 -825.4,-101.4 -825.4,-101.4 -212.2,-201.67 -377.3,48.29 -377.3,48.29 -343.5,-304.21 -666.6,-65.27 -765.4,23.42 -74.3,-204.74 18.9,-466.77 237.5,-543.71 138.8,-48.93 285.5,-18.83 417.6,39.76 -7.2,-125.79 89,-249.4 212.8,-273.14 123.8,-23.66 263.6,85.87 303.3,205.38 0,0 195.6,-185.66 509.5,-131.1 314,54.48 338.3,284.89 338.3,284.89 0,0 218.9,-355.39 656.6,-230.41 0,0 442.1,141.48 287.4,504.11 0,0 123,-11.19 247.3,40.64 0.8,0.41 1.6,0.65 2.4,1.05 5,2.09 10,4.35 15,6.68 1,0.48 1.9,0.88 2.9,1.37 5,2.33 10,4.83 15,7.48 0.8,0.41 1.5,0.81 2.3,1.21 10.5,5.55 20.9,11.67 31.2,18.27 0.7,0.48 1.4,0.96 2.2,1.44 4.9,3.22 9.7,6.61 14.5,10.06 0.9,0.65 1.8,1.29 2.7,1.94 4.8,3.54 9.5,7.16 14.2,10.94 0.7,0.57 1.4,1.13 2.1,1.69 9.8,8.05 19.3,16.74 28.6,26 0.6,0.72 1.3,1.36 2,2.01 4.3,4.51 8.6,9.09 12.8,13.92 0.8,0.89 1.6,1.77 2.4,2.66 4.2,4.83 8.3,9.82 12.2,14.97 0.7,0.8 1.3,1.6 1.9,2.41 8.4,10.95 16.3,22.53 23.7,34.93 0.6,0.96 1.2,1.85 1.7,2.73 3.5,5.96 6.9,12.08 10.2,18.43 0.6,1.13 1.2,2.34 1.8,3.54 3.2,6.36 6.4,12.88 9.4,19.64 0.4,1.05 0.9,2.09 1.3,3.14 3.2,7.08 6.1,14.4 8.9,21.97 0,0 274.2,-26.32 423.6,214.47 -208.8,-131.01 -390.3,-67.6 -390.3,-67.6"
                 style="fill:#4c9534;fill-opacity:1;fill-rule:nonzero;stroke:none"
                 id="path4868" />
            </g>
            <g
               id="g4870"
               transform="scale(0.124847,0.124847)">
              <path
                 d="m 15825.6,5486.39 c 158,-6.41 324.1,15.13 454.2,104.92 6.9,4.81 13.7,9.86 20.2,15.14 -22,101.89 -85.8,163.32 -142.8,198.97 -34.1,14.89 -68.3,29.71 -102.3,44.53 0,0 -182.9,-222.91 -574.6,-77.7 0,0 -118.9,-142.33 -308.1,-49.17 0,0 -98.4,-153.31 -295.6,-65.28 0,0 -109.3,-120.55 -241.4,-27.24 22,-53.1 64.5,-96.6 119.1,-114.46 54.5,-17.86 116.8,-10.73 165.8,19.15 7.4,-28.44 41.8,-39.09 70.9,-42.7 42.9,-5.2 86.9,-5.44 128.5,6.09 41.6,11.45 80.8,35.48 104.8,71.29 16.2,-39.25 58.7,-63.12 101,-67.28 42.3,-4.25 84.5,8.33 123.8,24.5 37.6,15.55 66.3,36.05 83.6,73.21 45.1,-28.99 88.7,-56.3 139.7,-78.17 24,-10.25 48.3,-20.59 73.7,-26.67 26,-6.25 52.8,-8.1 79.5,-9.13"
                 style="fill:#4c9534;fill-opacity:1;fill-rule:nonzero;stroke:none"
                 id="path4872" />
            </g>
            <g
               id="g4874"
               transform="scale(0.10295,0.10295)">
              <path
                 d="m 16300,6478.76 c -234.8,-60.52 -269.1,154.34 -269.1,154.34 -120.2,-7.67 -246,8.07 -348.5,71.5 -102.6,63.33 -176.6,181.54 -163,301.3 -131.9,-7.77 -266.8,-1.16 -391.3,43.23 -95.8,34.09 -185.1,92.76 -247.3,172.12 -16.7,-138.8 4.5,-281.59 68.8,-403.59 52.7,-99.76 129.5,-163.19 209.3,-237.88 135.4,3.01 262,57.6 262,57.6 0,0 118.6,-304.81 529.1,-142.79 0,0 133,-204.47 350,-15.83"
                 style="fill:#4c9534;fill-opacity:1;fill-rule:nonzero;stroke:none"
                 id="path4876" />
            </g>
            <g
               id="g4878"
               transform="scale(0.12219,0.12219)">
              <path
                 d="m 16300,6445.61 c -5.3,145.02 -90.8,344.87 -354.2,436.86 -189.1,66.04 -330.6,0.57 -424.6,-81.27 -17.1,145.92 -166.1,166.79 -166.1,166.79 -183.3,70.06 -253.4,-58.43 -253.4,-58.43 0,0 44.4,172.52 -64.7,236.31 -142.8,83.56 -253.3,-37.77 -253.3,-37.77 0,0 -70.2,415.11 -663.1,393.55 -592.9,-21.57 -512.1,-706.18 -512.1,-706.18 0,0 -64.7,161.72 -280.3,37.73 -215.6,-123.99 -103.1,-279.24 -103.1,-279.24 -118.6,45.59 -255.2,42.23 -371.4,-9.24 -45.5,-20.14 -86.6,-46.98 -123.1,-78.9 0.9,0.08 493.3,41.25 649.5,-213.52 -36.5,59.58 -47.7,147.15 -24,212.54 14,38.3 39.9,66.29 68.1,94.36 32,31.92 75.7,46.98 120,41.09 32.9,-4.34 65,-15.64 92.6,-34.21 55.7,-37.49 93.6,-108.28 99.4,-174.9 0,0 -63,716.92 497.6,673.87 0,0 409.7,21.53 436.6,-345.03 0,0 66.8,197.39 204.9,167.11 153.5,-33.72 129.3,-159.83 123.9,-238.97 0,0 102.5,158.12 307.3,77.26 172.1,-67.93 151,-226.45 151,-226.45 0,0 425.9,378.42 842.5,-53.36"
                 style="fill:#8ad034;fill-opacity:1;fill-rule:nonzero;stroke:none"
                 id="path4880" />
            </g>
          </g>
          <use
             height="100%"
             width="100%"
             transform="translate(15.972918,-4.2717033)"
             id="use5772"
             xlink:href="#g5305"
             y="0"
             x="0" />
          <g
             id="g5514"
             transform="matrix(0.02207615,0,0,-0.01680345,162.58171,371.9684)">
            <g
               id="g5609">
              <path
                 id="path4900"
                 style="fill:#b35825;fill-opacity:1;fill-rule:nonzero;stroke:none"
                 d="m 1399.33,723.63 c -61.63,-33.97 -101.59,-113.01 -118.17,-151.69 3.54,66.76 11.63,134.57 27.52,192.22 0,0 -67.81,-86.88 -50.34,-495.94 0.09,-2.25 1.94,-4.02 4.18,-4.02 l 22.53,0 c 2.48,0 4.42,2.15 4.17,4.61 -2.41,23.51 -12.79,133.64 -9.83,256.65 33.82,134.94 119.94,198.17 119.94,198.17" />
              <path
                 id="path4902"
                 style="fill:#813b1a;fill-opacity:1;fill-rule:nonzero;stroke:none"
                 d="m 1399.33,723.63 c -61.63,-33.97 -101.59,-113.01 -118.17,-151.69 2.83,53.38 8.57,107.42 18.88,156.41 l -7.66,0 c -8.39,-24.52 -18.41,-63.81 -25.89,-124.26 0.02,0.04 1.42,2.91 3.41,5.03 0.02,0.01 7.51,6.83 7.8,-27.11 0,0 -0.13,-2.82 -0.36,-7.52 -0.16,-2.78 -0.3,-4.54 -0.3,-4.54 -0.46,-4.36 -0.59,-8.73 -0.56,-13.11 -0.88,-18.01 -2.04,-41.88 -2.81,-58.32 l 0,0 c -0.14,-2.55 -0.28,-5.1 -0.42,-7.65 -1.39,-26.88 -2.06,-53.81 -1.98,-80.73 0.06,-22.75 0.16,-45.84 3.23,-68.43 5.72,-42 6.29,-69.86 -16.35,-68.98 0.06,-1.51 0.12,-3 0.19,-4.51 0.09,-2.25 1.94,-4.02 4.18,-4.02 l 22.53,0 c 2.48,0 4.42,2.15 4.17,4.61 -2.41,23.51 -12.79,133.64 -9.83,256.65 33.82,134.94 119.94,198.17 119.94,198.17" />
              <path
                 id="path4904"
                 style="fill:#e27839;fill-opacity:1;fill-rule:nonzero;stroke:none"
                 d="m 1257.93,278.06 c 0.1,1.74 0.18,3.58 0.22,5.56 4.44,192.65 4.45,284.07 4.45,284.4 -6.58,-70.62 -9.65,-164.94 -4.67,-289.96" />
              <path
                 id="path4906"
                 style="fill:#67b730;fill-opacity:1;fill-rule:nonzero;stroke:none"
                 d="m 1418.62,712.8 c 0,0 60.32,-27.3 8.89,-83.17 -51.42,-55.87 -91.98,3.84 -91.98,3.84 0,0 -8.09,-37.37 -37.06,-24.28 -20.16,9.1 -20.88,23.48 -19.44,31.39 -7.02,-21.4 -37.82,-92.82 -122.31,-30.3 -98.38,72.78 -28,120.77 -28,120.77 0,0 -38.03,24.39 -1.26,79.31 5.9,8.81 13.94,16.05 23.57,20.48 7.07,3.25 15.47,5.3 23.28,2.58 0,0 -32.79,13.6 -15.99,40.791 16.79,27.194 43.19,12.797 43.19,12.797 0,0 -8,19.196 7.2,29.593 15.19,10.398 27.99,-8.798 27.99,-8.798 0,0 9.17,60.785 78.96,57.586 69.8,-3.199 45.81,-71.982 45.81,-71.982 0,0 31.12,30.169 57.79,9.853 26.66,-20.316 26.66,-61.58 13.33,-74.92 0,0 24.12,2.54 25.39,-13.33 1.27,-15.87 -18.41,-24.12 -18.41,-24.12 0,0 34.45,-5.08 34.08,-32.38 0,0 8.46,-64.76 -55.03,-45.71" />
              <path
                 id="path4908"
                 style="fill:#4c9534;fill-opacity:1;fill-rule:nonzero;stroke:none"
                 d="m 1427.51,629.63 c 6.23,6.77 10.81,13.12 14.07,19.05 -74.96,-35.37 -105.71,38.09 -105.71,38.09 0,0 -4.23,-20.95 -27.19,-24.76 -22.96,-3.81 -32.27,23.49 -32.27,23.49 -8.25,-29.21 -33,-45.11 -72.69,-42.86 -62.86,3.57 -94.59,64.59 -94.59,64.59 l 0,0 c -0.15,-0.33 -0.3,-0.66 -0.45,-0.99 0,-0.01 0,-0.01 0,-0.02 -0.14,-0.31 -0.27,-0.62 -0.41,-0.94 -0.03,-0.07 -0.06,-0.14 -0.09,-0.22 -0.1,-0.25 -0.2,-0.5 -0.3,-0.76 -0.04,-0.09 -0.07,-0.18 -0.11,-0.27 -0.09,-0.24 -0.19,-0.49 -0.28,-0.73 -0.03,-0.1 -0.07,-0.19 -0.1,-0.29 -0.1,-0.25 -0.18,-0.5 -0.27,-0.76 -0.03,-0.08 -0.06,-0.17 -0.1,-0.26 -0.09,-0.29 -0.19,-0.58 -0.28,-0.88 -0.02,-0.05 -0.04,-0.1 -0.06,-0.15 -0.22,-0.71 -0.43,-1.42 -0.63,-2.15 -0.02,-0.08 -0.04,-0.15 -0.06,-0.23 -0.07,-0.28 -0.14,-0.56 -0.21,-0.85 -0.03,-0.1 -0.05,-0.21 -0.08,-0.32 -0.06,-0.26 -0.12,-0.52 -0.18,-0.78 -0.03,-0.11 -0.05,-0.23 -0.08,-0.35 -0.05,-0.26 -0.11,-0.52 -0.16,-0.78 -0.02,-0.11 -0.04,-0.23 -0.07,-0.34 -0.05,-0.29 -0.1,-0.57 -0.15,-0.85 -0.02,-0.1 -0.03,-0.19 -0.05,-0.29 -0.13,-0.76 -0.24,-1.54 -0.33,-2.33 -0.01,-0.08 -0.02,-0.16 -0.03,-0.24 -0.03,-0.31 -0.07,-0.62 -0.09,-0.93 -0.02,-0.13 -0.03,-0.25 -0.04,-0.37 -0.02,-0.27 -0.04,-0.55 -0.06,-0.83 -0.01,-0.13 -0.02,-0.27 -0.03,-0.41 -0.01,-0.27 -0.03,-0.54 -0.04,-0.81 -0.01,-0.14 -0.01,-0.28 -0.02,-0.41 -0.01,-0.29 -0.01,-0.57 -0.02,-0.86 0,-0.12 -0.01,-0.25 -0.01,-0.38 0,-0.33 0,-0.68 0,-1.02 0,-0.07 0,-0.14 0,-0.22 0.01,-0.42 0.02,-0.84 0.04,-1.27 0,-0.06 0,-0.13 0.01,-0.19 0.01,-0.36 0.03,-0.72 0.05,-1.08 0.01,-0.13 0.02,-0.27 0.03,-0.4 0.02,-0.29 0.05,-0.59 0.07,-0.88 0.02,-0.16 0.03,-0.31 0.05,-0.46 0.02,-0.29 0.05,-0.57 0.09,-0.85 0.01,-0.16 0.03,-0.32 0.05,-0.48 0.04,-0.29 0.08,-0.58 0.12,-0.87 0.02,-0.15 0.04,-0.3 0.06,-0.46 0.05,-0.32 0.1,-0.64 0.16,-0.96 0.02,-0.13 0.04,-0.25 0.06,-0.37 0.08,-0.45 0.16,-0.9 0.25,-1.36 0,-0.01 0.01,-0.02 0.01,-0.03 0.09,-0.44 0.18,-0.88 0.28,-1.32 0.03,-0.14 0.07,-0.29 0.1,-0.43 0.08,-0.31 0.15,-0.63 0.23,-0.95 0.04,-0.17 0.09,-0.33 0.13,-0.5 0.08,-0.3 0.16,-0.6 0.24,-0.9 0.05,-0.17 0.1,-0.35 0.15,-0.53 0.09,-0.29 0.18,-0.59 0.27,-0.89 0.05,-0.17 0.11,-0.35 0.16,-0.52 0.1,-0.32 0.21,-0.64 0.31,-0.96 0.05,-0.16 0.1,-0.31 0.16,-0.47 0.14,-0.41 0.29,-0.83 0.44,-1.25 0.02,-0.06 0.04,-0.12 0.06,-0.18 0.18,-0.48 0.36,-0.97 0.56,-1.45 0.05,-0.14 0.11,-0.28 0.16,-0.41 0.14,-0.35 0.28,-0.7 0.43,-1.05 0.08,-0.18 0.16,-0.36 0.23,-0.54 0.14,-0.31 0.27,-0.63 0.41,-0.94 0.09,-0.19 0.18,-0.39 0.27,-0.58 0.14,-0.31 0.28,-0.62 0.43,-0.93 0.09,-0.19 0.18,-0.39 0.28,-0.58 0.15,-0.32 0.32,-0.64 0.48,-0.97 0.09,-0.18 0.18,-0.36 0.27,-0.54 0.19,-0.38 0.39,-0.75 0.59,-1.13 0.07,-0.13 0.14,-0.26 0.21,-0.39 0.27,-0.51 0.56,-1.02 0.85,-1.53 0.06,-0.12 0.13,-0.23 0.2,-0.35 0.23,-0.4 0.46,-0.8 0.7,-1.2 0.1,-0.18 0.22,-0.36 0.33,-0.55 0.2,-0.33 0.41,-0.67 0.62,-1.01 0.12,-0.2 0.25,-0.4 0.38,-0.61 0.21,-0.32 0.41,-0.65 0.63,-0.97 0.13,-0.21 0.27,-0.42 0.41,-0.63 0.21,-0.33 0.44,-0.66 0.66,-0.99 0.14,-0.2 0.28,-0.4 0.41,-0.6 0.25,-0.37 0.51,-0.73 0.77,-1.09 0.12,-0.17 0.24,-0.34 0.36,-0.52 0.39,-0.53 0.78,-1.07 1.18,-1.61 0.02,-0.03 0.05,-0.06 0.08,-0.1 0.37,-0.5 0.76,-1.01 1.15,-1.52 0.14,-0.18 0.29,-0.36 0.43,-0.54 0.29,-0.37 0.57,-0.73 0.87,-1.1 0.17,-0.21 0.34,-0.42 0.52,-0.64 0.27,-0.34 0.55,-0.68 0.84,-1.02 0.18,-0.22 0.37,-0.44 0.55,-0.66 0.29,-0.34 0.58,-0.69 0.88,-1.03 0.19,-0.22 0.37,-0.43 0.56,-0.65 0.32,-0.37 0.64,-0.73 0.97,-1.09 0.17,-0.2 0.35,-0.4 0.53,-0.6 0.41,-0.45 0.83,-0.91 1.25,-1.36 0.1,-0.11 0.19,-0.22 0.3,-0.33 0.52,-0.56 1.06,-1.13 1.6,-1.7 0.16,-0.16 0.32,-0.33 0.48,-0.49 0.4,-0.41 0.79,-0.81 1.2,-1.22 0.21,-0.21 0.42,-0.43 0.64,-0.64 0.36,-0.37 0.73,-0.73 1.1,-1.1 0.23,-0.23 0.47,-0.45 0.71,-0.68 0.36,-0.36 0.73,-0.72 1.11,-1.07 0.24,-0.23 0.49,-0.47 0.73,-0.7 0.39,-0.36 0.79,-0.73 1.19,-1.1 0.23,-0.22 0.47,-0.44 0.71,-0.66 0.46,-0.42 0.93,-0.85 1.4,-1.27 0.19,-0.17 0.37,-0.33 0.55,-0.49 0.66,-0.59 1.33,-1.18 2.02,-1.78 0.14,-0.12 0.29,-0.25 0.44,-0.38 0.54,-0.46 1.09,-0.93 1.65,-1.41 0.25,-0.21 0.5,-0.42 0.75,-0.63 0.47,-0.39 0.94,-0.78 1.42,-1.17 0.28,-0.24 0.57,-0.47 0.85,-0.7 0.46,-0.38 0.92,-0.75 1.39,-1.13 0.3,-0.24 0.6,-0.48 0.91,-0.72 0.47,-0.38 0.95,-0.76 1.43,-1.13 0.3,-0.24 0.6,-0.47 0.91,-0.71 0.53,-0.41 1.07,-0.82 1.61,-1.24 0.26,-0.2 0.52,-0.4 0.78,-0.6 0.81,-0.61 1.63,-1.23 2.47,-1.84 84.49,-62.52 115.29,8.9 122.31,30.3 -1.44,-7.91 -0.72,-22.29 19.44,-31.39 28.97,-13.09 37.06,24.28 37.06,24.28 0,0 40.56,-59.71 91.98,-3.84" />
              <path
                 id="path4910"
                 style="fill:#4c9534;fill-opacity:1;fill-rule:nonzero;stroke:none"
                 d="m 1439.57,790.89 c 0,0 19.68,8.25 18.41,24.12 -1.27,15.87 -25.39,13.33 -25.39,13.33 0,0 -21.75,-33.8 -65.55,-5.71 0,0 -17.14,-23.33 -39.05,-4.76 0,0 -13.81,-18.09 -32.85,-4.76 0,0 8.57,-28.1 36.66,-15.24 0,0 20.93,-28.11 41.88,-0.97 0,0 24.89,-25.52 74.64,-8.29 -5,1.72 -8.75,2.28 -8.75,2.28" />
              <path
                 id="path4912"
                 style="fill:#4c9534;fill-opacity:1;fill-rule:nonzero;stroke:none"
                 d="m 1242.35,718.51 c 6.79,4.41 12.15,11.49 13.11,19.52 -9.98,-9.11 -23.76,-12.42 -36.26,-7.26 -6.04,2.49 -10.11,7.28 -11.54,15.35 -7.49,-2.9 -15.65,-4.08 -23.66,-3.42 -4.94,0.41 -7.47,0.44 -11.71,3.01 -8.72,5.29 -9.52,16.45 -9.52,16.45 -24.55,-3.4 -39.61,10.8 -47.94,23.36 -12.56,-37.49 13.89,-54.47 13.89,-54.47 0,0 -0.38,-0.27 -1.06,-0.79 5.86,0.8 17.89,5.62 20.81,-0.36 3.86,-7.91 11.09,-14.11 19.5,-16.71 8.41,-2.61 17.88,-1.57 25.53,2.78 1.05,0.6 2.12,1.27 3.32,1.37 2.46,0.22 4.38,-1.92 6.38,-3.37 4.54,-3.3 10.64,-3.35 16.22,-2.75 8.05,0.87 16.14,2.88 22.93,7.29" />
              <path
                 id="path4914"
                 style="fill:#8ad034;fill-opacity:1;fill-rule:nonzero;stroke:none"
                 d="m 1174.31,833.42 c -1.41,0.49 -2.84,0.82 -4.27,1.02 2.7,-0.65 4.27,-1.02 4.27,-1.02" />
              <path
                 id="path4916"
                 style="fill:#8ad034;fill-opacity:1;fill-rule:nonzero;stroke:none"
                 d="m 1414.5,885.044 c 0,0 24.81,-13.124 24.11,-46.544 6.37,17.95 2.3,48.264 -19.35,64.76 -26.67,20.316 -57.79,-9.853 -57.79,-9.853 0,0 23.99,68.783 -45.81,71.982 -69.79,3.199 -78.96,-57.586 -78.96,-57.586 0,0 -12.8,19.196 -27.99,8.798 -15.2,-10.397 -7.2,-29.593 -7.2,-29.593 0,0 -26.4,14.397 -43.19,-12.797 -16.8,-27.191 15.99,-40.791 15.99,-40.791 0,0 -17.58,20 2.42,35.87 20,15.876 34.92,-5.07 34.92,-5.07 0,0 -9.2,18.724 9.53,32.057 0,0 19.04,1.904 25.71,-20.317 0,0 2.85,63.171 60.31,60.631 0,0 62.85,-4.444 35.87,-68.251 0,0 39.36,38.484 71.43,16.704" />
            </g>
          </g>
          <use
             height="100%"
             width="100%"
             transform="translate(6.3624606,-6.882614)"
             id="use5774"
             xlink:href="#g5386"
             y="0"
             x="0" />
          <g
             id="g5386"
             transform="matrix(0.01987597,0,0,-0.01512877,184.05915,381.25657)">
            <g
               id="g5620">
              <path
                 id="path4918"
                 style="fill:#b35825;fill-opacity:1;fill-rule:nonzero;stroke:none"
                 d="m 1030.76,918.353 c -1.83,0.67 -3.52,1.804 -5.32,2.575 -5.36,2.299 -10.23,5.397 -15.02,8.705 -7.6,5.249 -14.477,11.751 -19.743,19.363 -7.751,11.205 -8.908,24.351 -9.146,37.578 -0.235,13.023 -1.092,26.046 -0.843,39.056 0.481,25.21 0.963,36.38 1.444,80.34 0.089,0.03 0.17,0.29 0.24,0.87 1.777,14.99 -3.275,73.41 6.307,86.22 6.631,8.86 13.361,17.73 21.431,25.31 8.07,7.57 45.65,49.47 56.37,52.25 -1.1,-0.29 -9.99,9.26 -11.33,10.7 -1.67,1.8 -2.77,4.39 -4.46,6.05 -2.62,2.56 -3.52,1.43 -5.66,-2.01 -4.75,-7.65 -38.69,-50.1 -44.58,-56.9 -2.191,-2.54 -4.386,-5.07 -6.581,-7.61 -1.396,-1.61 -2.803,-3.24 -4.476,-4.56 -3.475,-2.75 -8.786,-6.08 -13.05,-7.3 -2.099,-0.6 -4.4,-0.81 -6.435,-0.02 -4.177,1.63 -5.711,6.67 -6.5,11.08 -2.092,11.71 -2.677,23.62 -2.853,35.49 -0.08,5.37 -0.149,10.45 0.832,15.65 0.627,3.32 1.8,9.19 -0.78,12.04 -1.86,2.04 -5.095,1 -7.628,0.86 -2.722,-0.15 -5.472,-0.27 -8.184,-0.51 -9.316,-0.82 -4.55,-16.52 -3.737,-22.15 2.338,-16.18 4.68,-32.59 2.735,-48.82 -0.468,-3.9 -2.085,-8.68 -6,-9.08 -2.076,-0.21 -4.014,0.99 -5.701,2.21 -12.649,9.22 -21.438,22.67 -29.941,35.81 -2.48,3.84 -18.505,20.24 -20.984,24.07 -1.455,2.25 -4.353,9.18 -6.838,10.16 -4.614,1.8 -13.552,-7.11 -15.285,-10.69 -2.099,-4.34 1.112,-4.55 4.16,-7.19 4.541,-3.92 22.152,-21.22 26.279,-25.58 9.323,-9.83 18.352,-20.09 25.176,-31.8 6.825,-11.71 11.384,-67.09 11.119,-80.64 l 0.246,-0.19 c -0.43,-37.56 0.701,-50.22 3.385,-71.03 3.375,-26.15 -1.787,-50.07 -3.415,-76.047 -0.423,-6.752 -0.727,-13.722 -3.023,-20.155 -2.613,-7.321 -7.381,-11.153 -13.106,-15.961 -4.162,-3.494 -8.639,-6.614 -13.359,-9.307 -3.11,-1.775 -6.356,-3.387 -9.056,-5.74 -1.613,-1.407 -3.028,-3.139 -3.921,-5.07 -0.549,-1.185 0.659,-2.433 1.863,-1.927 3.791,1.595 10.154,2.915 11.468,3.162 5.301,0.994 10.627,0.891 16.058,0.984 2.117,0.036 4.253,0.075 6.317,0.547 2.856,0.654 5.454,2.109 8.007,3.546 1.982,1.116 3.963,2.231 5.944,3.346 -0.054,-0.03 -0.391,-8.788 -0.791,-9.88 -0.992,-2.714 -2.422,-4.849 -3.137,-7.758 -1.326,-5.395 -2.211,-11.207 -1.292,-16.735 0.232,-1.397 2.137,-1.706 2.722,-0.417 0.781,1.721 1.822,3.325 3.083,4.732 4.543,5.073 11.564,7.358 16.176,12.368 1.272,1.383 2.336,2.948 3.639,4.302 2.385,2.479 6.5,4.993 9.625,6.43 4.358,2.003 8.885,0.457 13.476,0.445 4.492,-0.013 8.985,0.269 13.44,0.846 2.582,0.334 5.175,0.768 7.773,0.606 5.8,-0.361 10.81,-3.558 16.17,-5.437 5.55,-1.943 10.57,-0.409 16.48,-0.625 1,-0.037 2.01,0.074 2.95,0.423 5.12,1.907 -1.86,2.692 -2.74,3.015" />
              <path
                 id="path4920"
                 style="fill:#813b1a;fill-opacity:1;fill-rule:nonzero;stroke:none"
                 d="m 1066.21,1270.67 c -0.04,0.02 -0.09,0.04 -0.13,0.06 -0.08,0.05 -0.17,0.1 -0.27,0.16 -0.06,0.04 -0.13,0.09 -0.2,0.13 -0.1,0.07 -0.2,0.15 -0.31,0.24 -0.09,0.06 -0.17,0.12 -0.26,0.2 -0.1,0.08 -0.21,0.18 -0.32,0.27 -0.27,0.22 -0.55,0.47 -0.85,0.74 -0.03,0.03 -0.06,0.05 -0.09,0.08 -0.2,0.18 -0.4,0.37 -0.6,0.56 -0.04,0.04 -0.08,0.07 -0.11,0.11 -0.23,0.2 -0.45,0.42 -0.68,0.64 -7.03,2.5 -14.35,4.17 -21.81,5.23 -1.3,-1.76 -2.81,-3.75 -4.47,-5.91 -0.06,-0.08 -0.12,-0.15 -0.18,-0.23 -0.38,-0.5 -0.77,-1.01 -1.17,-1.53 -0.05,-0.06 -0.09,-0.11 -0.13,-0.17 -2.16,-2.8 -4.51,-5.82 -6.95,-8.92 -0.07,-0.1 -0.15,-0.2 -0.23,-0.3 -0.44,-0.56 -0.89,-1.14 -1.34,-1.71 -0.06,-0.08 -0.13,-0.16 -0.19,-0.24 -0.47,-0.59 -0.94,-1.19 -1.41,-1.79 -0.01,-0.02 -0.03,-0.04 -0.04,-0.05 -1.5,-1.9 -3.01,-3.81 -4.5,-5.69 -0.03,-0.04 -0.07,-0.08 -0.1,-0.12 -0.4,-0.5 -0.8,-1.01 -1.2,-1.51 -0.16,-0.2 -0.32,-0.4 -0.48,-0.6 -0.37,-0.47 -0.73,-0.92 -1.1,-1.38 -0.17,-0.22 -0.34,-0.43 -0.52,-0.65 -0.36,-0.46 -0.72,-0.91 -1.08,-1.36 -0.16,-0.2 -0.32,-0.4 -0.48,-0.6 -0.36,-0.45 -0.72,-0.9 -1.07,-1.34 -0.13,-0.16 -0.26,-0.32 -0.39,-0.48 -0.62,-0.77 -1.22,-1.52 -1.81,-2.26 -0.24,-0.3 -0.48,-0.6 -0.72,-0.89 -0.25,-0.32 -0.5,-0.63 -0.76,-0.94 -0.23,-0.29 -0.47,-0.58 -0.7,-0.87 -0.24,-0.29 -0.47,-0.59 -0.71,-0.88 -0.24,-0.3 -0.48,-0.6 -0.72,-0.9 -0.21,-0.25 -0.41,-0.5 -0.61,-0.74 -0.27,-0.33 -0.53,-0.66 -0.79,-0.98 -0.16,-0.2 -0.33,-0.4 -0.48,-0.59 -0.41,-0.5 -0.81,-0.99 -1.18,-1.45 -0.06,-0.07 -0.12,-0.14 -0.17,-0.21 -0.32,-0.39 -0.63,-0.77 -0.93,-1.13 -0.12,-0.15 -0.24,-0.29 -0.36,-0.44 -0.22,-0.27 -0.44,-0.53 -0.65,-0.78 -0.12,-0.15 -0.23,-0.28 -0.35,-0.42 -0.18,-0.23 -0.37,-0.45 -0.54,-0.66 -0.11,-0.13 -0.21,-0.25 -0.31,-0.38 -0.17,-0.2 -0.33,-0.38 -0.48,-0.56 -0.08,-0.1 -0.17,-0.2 -0.24,-0.29 -0.22,-0.25 -0.42,-0.49 -0.59,-0.68 -2.191,-2.54 -4.386,-5.07 -6.581,-7.61 -1.396,-1.61 -2.803,-3.24 -4.476,-4.56 -3.475,-2.75 -8.786,-6.08 -13.05,-7.3 -2.099,-0.6 -4.4,-0.81 -6.435,-0.02 -4.177,1.63 -5.711,6.67 -6.5,11.08 -2.092,11.71 -2.677,23.62 -2.853,35.49 -0.08,5.37 -0.149,10.45 0.832,15.65 0.058,0.3 0.121,0.64 0.185,0.99 0.009,0.05 0.018,0.1 0.028,0.15 0.067,0.37 0.136,0.76 0.201,1.16 0.004,0.03 0.008,0.05 0.012,0.08 0.136,0.85 0.257,1.75 0.325,2.67 0.105,1.39 0.09,2.8 -0.174,4.08 -0.087,0.42 -0.202,0.82 -0.35,1.21 -5.937,0.48 -11.956,1.22 -17.974,1.84 -6.968,-1.8 -4.107,-13.8 -2.899,-20.11 0.034,-0.18 0.066,-0.35 0.097,-0.52 0.009,-0.05 0.02,-0.11 0.029,-0.16 0.026,-0.14 0.049,-0.27 0.072,-0.41 0.011,-0.06 0.024,-0.13 0.034,-0.19 0.032,-0.19 0.061,-0.38 0.085,-0.55 2.338,-16.18 4.68,-32.59 2.735,-48.82 -0.468,-3.9 -2.085,-8.68 -6,-9.08 -2.076,-0.21 -4.014,0.99 -5.701,2.21 -12.649,9.22 -21.438,22.67 -29.941,35.81 -2.48,3.84 -18.505,20.24 -20.984,24.07 -1.455,2.25 -4.353,9.18 -6.838,10.16 -4.614,1.8 -13.552,-7.11 -15.285,-10.69 -2.099,-4.34 1.112,-4.55 4.16,-7.19 4.541,-3.92 22.152,-21.22 26.279,-25.58 0.372,-0.39 0.739,-0.79 1.11,-1.18 7.417,-0.04 14.983,-4.14 20.267,-9.67 5.363,-5.62 9.13,-12.54 13.992,-18.6 7.692,-9.57 14.698,-58.93 17.845,-71.45 1.326,-5.27 4.384,-9.66 5.611,-14.95 1.648,-7.11 2.235,-14.55 2.02,-21.83 -0.118,-3.97 -0.434,-8.21 1.586,-11.63 -0.824,1.4 2.69,11.27 2.968,13.41 0.595,4.58 0.552,9.09 0.562,13.69 0.022,9.26 -0.546,18.58 -0.316,27.88 0.061,2.48 0.163,47.06 1.004,49.4 2.452,6.82 7.947,5.7 10.53,-0.42 1.466,-3.47 1.186,-49.45 0.879,-53.21 -0.428,-5.25 -0.856,-10.51 -1.284,-15.76 -0.811,-9.95 -0.673,-20.58 -3.481,-30.11 -2.94,-9.99 -1.003,-22.85 -0.678,-33.15 0.038,-1.22 0.195,-2.64 1.243,-3.26 1.574,-0.92 3.381,0.85 4.14,2.51 0.882,1.92 1.659,11.53 4.139,11.02 1.116,-0.23 1.554,-1.62 1.48,-2.76 -0.164,-2.48 0.226,-4.73 0.221,-7.24 -0.019,-9.6 -0.038,-19.21 -0.058,-28.81 -0.005,-2.54 -0.061,-16.48 -4.601,-16.07 -2.99,0.26 -1.368,6.98 -1.443,8.78 -0.151,3.62 -0.538,7.22 -1.159,10.79 -0.168,0.96 -0.376,1.97 -1.018,2.71 -0.642,0.73 -1.865,1.05 -2.605,0.42 -1.164,-1.01 -0.96,-7.47 -1.097,-9.05 -0.281,-3.25 -0.442,-6.5 -0.484,-9.76 -0.087,-6.73 0.333,-13.47 1.256,-20.134 1.061,-7.67 2.997,-15.108 4.065,-22.843 0.755,-5.479 1.514,-11 1.191,-16.521 -0.614,-10.493 -5.293,-20.695 -12.845,-28.005 -4.801,-4.648 -10.649,-8.115 -15.39,-12.823 -5.838,-5.796 -9.755,-13.448 -11.23,-21.535 0.025,-0.164 0.035,-0.331 0.063,-0.494 0.232,-1.397 2.137,-1.706 2.722,-0.417 0.781,1.721 1.822,3.325 3.083,4.732 4.543,5.073 11.564,7.358 16.176,12.368 1.272,1.383 2.336,2.948 3.639,4.302 2.385,2.479 6.5,4.993 9.625,6.43 4.358,2.003 8.885,0.457 13.476,0.445 4.492,-0.013 8.985,0.269 13.44,0.846 2.582,0.334 5.175,0.768 7.773,0.606 5.8,-0.361 10.81,-3.558 16.17,-5.437 5.55,-1.943 10.57,-0.409 16.48,-0.625 1,-0.037 2.01,0.074 2.95,0.423 0.1,0.038 0.19,0.074 0.28,0.111 0.68,0.32 1.22,0.733 1.56,1.294 -1.35,1.123 -2.97,1.021 -4.58,1.61 -1.83,0.67 -3.52,1.804 -5.32,2.575 -5.36,2.299 -10.23,5.397 -15.02,8.705 -7.6,5.249 -14.477,11.751 -19.743,19.363 -7.751,11.205 -8.908,24.351 -9.146,37.578 -0.235,13.023 -1.092,26.046 -0.843,39.056 0.481,25.21 0.963,36.38 1.444,80.34 0.089,0.03 0.17,0.29 0.24,0.87 1.777,14.99 -3.275,73.41 6.307,86.22 6.631,8.86 13.361,17.73 21.431,25.31 8.07,7.57 45.65,49.47 56.37,52.25 -0.07,-0.02 -0.16,0.01 -0.27,0.05" />
              <path
                 id="path4922"
                 style="fill:#e27839;fill-opacity:1;fill-rule:nonzero;stroke:none"
                 d="m 935.52,968 c 0.951,7.361 0.306,14.819 0.116,22.238 -0.257,10.072 2.767,18.342 1.911,28.382 -0.955,11.19 -0.082,22 0.101,33.26 0.072,4.43 0.143,8.88 -0.503,13.26 -0.233,1.58 -0.558,3.15 -0.884,4.71 -2.235,10.76 -1.409,21.05 -1.989,32.05 -0.51,9.66 -1.747,19.52 -6.152,28.13 -1.342,2.62 -1.574,6.86 -3.207,9.31 0.388,-5.69 0.982,-13.48 0.865,-19.46 l 0.246,-0.19 c -0.43,-37.56 0.701,-50.22 3.385,-71.03 3.375,-26.15 -1.787,-50.07 -3.415,-76.047 -0.423,-6.752 -0.727,-13.722 -3.023,-20.155 -2.613,-7.321 -7.381,-11.153 -13.106,-15.961 -0.144,-0.12 -0.295,-0.232 -0.44,-0.352 12.998,6.397 24.191,17.122 26.095,31.855" />
              <path
                 id="path4924"
                 style="fill:#67b730;fill-opacity:1;fill-rule:nonzero;stroke:none"
                 d="m 897.208,1577.07 c 0,0 -9.112,48.99 61.285,32.97 0,0 25.51,-3.78 22.097,-28.84 0,0 30.65,19.59 48.22,-9.66 17.56,-29.24 0,-35.05 0,-35.05 0,0 17.47,14.68 30.62,-0.68 13.16,-15.36 -0.7,-23.37 -0.7,-23.37 0,0 36.62,25.85 58.02,-7.47 21.39,-33.32 -19.91,-54.79 -19.91,-54.79 0,0 22.73,8.57 28.92,-3.37 6.19,-11.94 -9.83,-21.78 -9.83,-21.78 0,0 38.25,18.89 48.81,-14.41 10.55,-33.3 -8.48,-51.55 -30.1,-56.62 0,0 36.18,-0.07 38.1,-15.69 1.92,-15.62 4.75,-41.1 -27.12,-36.18 0,0 19.47,8.15 22.02,-14.05 0,0 19.7,2.84 23.39,-19.98 3.69,-22.82 -6.28,-32.64 -13.92,-34.9 0,0 20.76,5.26 24.95,-11.62 4.18,-16.88 -10.22,-25.66 -23.41,-25.09 0,0 3.09,-27.37 -26.54,-35.94 -29.63,-8.57 -41.28,7.23 -41.28,7.23 0,0 6.92,-21.48 -10.93,-20.14 -17.84,1.34 -19.66,12.63 -19.66,12.63 0,0 10.88,-45.13 -30.43,-44.41 -41.31,0.71 -39.86,23.66 -39.86,23.66 0,0 3.64,-35.69 -31.681,-25.86 -35.326,9.83 -42.612,13.86 -42.612,13.86 0,0 -6.553,-24.33 -40.148,-18.32 -33.596,6.01 -26.76,25.94 -26.76,25.94 0,0 0.539,-18.84 -15.03,-15.84 -15.568,3.01 -11.472,11.48 -11.472,11.48 0,0 -11.744,-41.52 -39.058,-22.54 -27.313,18.98 -15.022,29.36 -15.022,29.36 0,0 -24.036,-2.9 -25.129,18.63 -1.092,21.52 11.308,19.51 11.308,19.51 0,0 -14.858,-7.72 -20.594,6.03 0,0 -25.024,-13.22 -36.957,17.47 -11.934,30.68 20.296,31.37 20.296,31.37 0,0 -17.208,0.65 -11.199,16.78 6.009,16.13 20.212,9.39 20.212,9.39 0,0 -31.684,8.1 -14.476,35.14 17.207,27.04 36.6,10.25 36.6,10.25 0,0 -26.493,-1.51 -20.894,24.44 5.598,25.95 25.087,15.84 25.087,15.84 0,0 -27.893,-7.41 -32.704,20.33 -4.811,27.75 10.869,38.94 20.373,38.4 l 11.223,-1.9 c 0,0 -13.191,-2.2 -8.548,16.1 0,0 3.278,10.65 12.838,7.38 0,0 -26.791,-1.27 -26.779,30.77 0.011,32.05 28.417,37.24 37.431,32.32 0,0 -9.365,11.36 3.824,18.37 13.188,7.02 20.212,-4.61 20.212,-4.61 0,0 -20.183,18.52 8.618,34.88 0,0 12.959,9.49 25.25,1.32 0,0 -5.271,14.23 6.925,22.83 12.195,8.6 22.16,-0.31 22.16,-0.31 0,0 -4.876,18.68 8.655,19.91 13.532,1.24 15.309,-1.17 15.309,-1.17" />
              <path
                 id="path4926"
                 style="fill:#4c9534;fill-opacity:1;fill-rule:nonzero;stroke:none"
                 d="m 1177.45,1233.28 c -2.31,-8.51 -8.61,-19.34 -25.34,-24.19 -29.63,-8.57 -41.28,7.24 -41.28,7.24 0,0 6.92,-21.48 -10.93,-20.14 -15.93,1.2 -19.08,10.32 -19.58,12.26 0.92,-4.27 8.63,-44.72 -30.51,-44.05 -34.22,0.59 -39.1,16.44 -39.76,21.86 0.17,-7.12 -1.29,-32.54 -31.781,-24.06 -35.326,9.84 -42.612,13.86 -42.612,13.86 0,0 -6.553,-24.33 -40.148,-18.32 -22.544,4.03 -26.882,14.34 -27.296,20.68 -1.098,-5.33 -4.427,-12.51 -14.494,-10.57 -12.078,2.33 -12.32,7.94 -11.821,10.35 -2.125,-6.5 -14.093,-38.52 -38.709,-21.41 -27.313,18.98 -15.022,29.36 -15.022,29.36 0,0 -24.036,-2.91 -25.129,18.62 -0.524,10.33 2.057,15.23 4.883,17.54 -4.744,-0.68 -10.92,0.22 -14.169,8 0,0 -11.411,-6.02 -22.497,-0.49 -8.675,-1.91 -23.076,-8.43 -14.46,-30.58 11.933,-30.69 36.957,-17.47 36.957,-17.47 3.249,-7.79 9.425,-8.69 14.169,-8 -2.826,-2.32 -5.407,-7.22 -4.883,-17.54 1.093,-21.53 25.129,-18.63 25.129,-18.63 0,0 -12.291,-10.38 15.022,-29.36 24.616,-17.1 36.584,14.92 38.709,21.41 -0.499,-2.4 -0.257,-8.02 11.821,-10.35 10.067,-1.94 13.396,5.25 14.494,10.58 0.414,-6.35 4.752,-16.65 27.296,-20.68 33.595,-6.01 40.148,18.32 40.148,18.32 0,0 7.286,-4.03 42.612,-13.86 30.491,-8.49 31.951,16.93 31.781,24.05 0.66,-5.42 5.54,-21.26 39.76,-21.85 39.14,-0.68 31.43,39.78 30.51,44.04 0.5,-1.94 3.65,-11.06 19.58,-12.26 17.85,-1.34 10.93,20.14 10.93,20.14 0,0 11.65,-15.8 41.28,-7.23 29.63,8.57 26.54,35.94 26.54,35.94 13.19,-0.57 27.59,8.21 23.41,25.09 -3.88,15.63 -21.96,12.28 -24.61,11.7" />
              <path
                 id="path4928"
                 style="fill:#4c9534;fill-opacity:1;fill-rule:nonzero;stroke:none"
                 d="m 1190.02,1246.91 c -3.56,-1.4 -7.52,-2.04 -11.37,-1.88 0,0 0.58,-5.17 -1.19,-11.72 4.56,1.47 9.85,5.63 12.56,13.6" />
              <path
                 id="path4930"
                 style="fill:#8ad034;fill-opacity:1;fill-rule:nonzero;stroke:none"
                 d="m 786.255,1454.36 c 0,0 -9.365,11.36 3.824,18.37 8.495,4.52 14.428,1.3 17.578,-1.56 -4.331,5.93 -10.466,19.49 11.252,31.83 0,0 12.959,9.48 25.25,1.32 0,0 -5.271,14.23 6.925,22.83 12.195,8.6 22.16,-0.31 22.16,-0.31 0,0 -4.877,18.68 8.655,19.91 13.532,1.23 15.309,-1.17 15.309,-1.17 0,0 -9.112,48.99 61.285,32.96 0,0 25.51,-3.77 22.097,-28.83 0,0 30.65,19.58 48.22,-9.66 11.64,-19.38 7.85,-28.46 3.97,-32.39 5.92,3.37 17.36,7.51 26.65,-3.34 11.35,-13.25 2.61,-21.02 -0.01,-22.92 5.12,3.33 37.66,22.71 57.33,-7.92 0.65,-1.01 1.24,-2.01 1.77,-3 5.21,9.03 7.05,20.75 -1.77,34.49 -19.67,30.64 -52.21,11.25 -57.33,7.93 2.62,1.89 11.36,9.67 0.01,22.91 -9.29,10.85 -20.73,6.71 -26.65,3.34 3.88,3.93 7.67,13.01 -3.97,32.39 -17.57,29.25 -48.22,9.66 -48.22,9.66 3.413,25.06 -22.097,28.84 -22.097,28.84 -70.397,16.02 -61.285,-32.97 -61.285,-32.97 0,0 -1.777,2.41 -15.309,1.17 -13.532,-1.23 -8.655,-19.91 -8.655,-19.91 0,0 -9.965,8.91 -22.16,0.31 -12.196,-8.6 -6.925,-22.83 -6.925,-22.83 -12.291,8.17 -25.25,-1.32 -25.25,-1.32 -21.718,-12.33 -15.583,-25.9 -11.252,-31.83 -3.15,2.87 -9.083,6.08 -17.578,1.56 -13.189,-7.01 -3.824,-18.37 -3.824,-18.37 -9.014,4.92 -37.42,-0.27 -37.431,-32.32 -0.003,-6.53 1.121,-11.66 2.892,-15.72 7.454,17.9 27.28,20.51 34.539,16.55" />
              <path
                 id="path4932"
                 style="fill:#4c9534;fill-opacity:1;fill-rule:nonzero;stroke:none"
                 d="m 889.462,1245.09 c 4.873,-0.61 9.707,-0.23 14.683,1.18 5.175,1.45 11.758,2.89 13.401,9.02 2.763,-4.89 8.603,-7.39 14.214,-7.61 5.61,-0.23 11.101,1.47 16.439,3.21 6.149,2.01 12.965,4.73 15.404,10.72 4.578,-0.69 9.355,-1.36 13.754,0.08 5.222,1.71 9.15,6.23 11.393,11.24 2.242,5.02 1.993,9.59 2.678,15.04 -1.304,-6.39 -9.105,-9.29 -15.59,-8.62 -5.291,0.55 -10.403,2.73 -14.469,6.16 -4.041,-8.02 -12.108,-13.87 -20.982,-15.23 -8.874,-1.35 -18.321,1.83 -24.569,8.27 -2.515,-2.04 -5.044,-4.1 -7.858,-5.71 -13.151,-7.52 -31.854,-2.84 -39.916,9.99 -0.268,0.42 -0.551,0.88 -1.009,1.09 0,0 -6.787,-27.04 -39.613,-10.37 0,0 5.824,-24.62 32.297,-20.11 0,0 7.588,1.85 9.353,6.79 -0.385,-1.08 3.089,-5.08 3.656,-5.81 2.52,-3.26 5.626,-6.49 9.633,-7.76 2.389,-0.75 4.75,-1.28 7.101,-1.57" />
              <path
                 id="path4934"
                 style="fill:#4c9534;fill-opacity:1;fill-rule:nonzero;stroke:none"
                 d="m 972.975,1457.92 c -1.644,-6.13 -8.227,-7.56 -13.401,-9.02 -4.976,-1.4 -9.81,-1.79 -14.683,-1.18 -2.352,0.29 -4.712,0.82 -7.102,1.57 -4.006,1.27 -7.112,4.5 -9.633,7.76 -0.566,0.73 -4.04,4.73 -3.655,5.81 -1.765,-4.94 -9.354,-6.79 -9.354,-6.79 -26.472,-4.5 -32.296,20.12 -32.296,20.12 32.826,-16.68 39.613,10.36 39.613,10.36 0.457,-0.21 0.741,-0.67 1.009,-1.09 8.062,-12.83 26.765,-17.5 39.915,-9.98 2.815,1.61 5.344,3.66 7.859,5.71 0,0 15.458,-15.79 35.513,1.95 0,0 -1.76,-37.17 -33.785,-25.22" />
              <path
                 id="path4936"
                 style="fill:#4c9534;fill-opacity:1;fill-rule:nonzero;stroke:none"
                 d="m 1134.79,1354.04 c 2.02,0.48 4.03,1.08 5.98,1.79 -3.23,0.46 -5.49,0.44 -5.67,-0.47 -0.09,-0.45 -0.19,-0.89 -0.31,-1.32" />
              <path
                 id="path4938"
                 style="fill:#4c9534;fill-opacity:1;fill-rule:nonzero;stroke:none"
                 d="m 1161.93,1302.84 c 14.37,5.05 12.31,23.27 10.81,35.47 -1.85,15.07 -35.58,15.66 -37.96,15.68 -1.7,-6.24 -6.37,-11.63 -12.35,-14.11 -6.71,-2.8 -12.73,-1.21 -19.14,1.21 -2.13,-3.7 -3.14,-7 -7.31,-9.21 -3.74,-1.98 -8.11,-2.45 -12.34,-2.29 -6.86,0.26 -13.65,2.1 -19.71,5.32 1.13,-5.47 -4.56,-9.98 -9.94,-11.47 -11.12,-3.1 -23.87,0.77 -31.4,9.53 -0.01,-6.92 3.81,-13.46 9.11,-17.9 5.3,-4.43 11.95,-6.97 18.69,-8.53 4.67,-1.08 9.84,-1.67 14.03,0.67 1.84,1.02 3.69,2.63 5.75,2.2 1.01,-0.21 1.84,-0.89 2.67,-1.5 6.04,-4.48 13.96,-6.32 21.36,-4.98 5.14,0.93 9.97,3.39 13.81,6.92 1.81,1.66 3.28,4.97 5.25,6.22 2.59,1.63 4.34,0.14 7.06,-1 12.27,-5.2 25.09,-9.12 38.18,-11.66 1.12,-0.21 2.27,-0.41 3.43,-0.57" />
              <path
                 id="path4940"
                 style="fill:#4c9534;fill-opacity:1;fill-rule:nonzero;stroke:none"
                 d="m 876.295,1384.57 c -4.971,0.52 -9.773,2.56 -13.592,5.78 -3.796,-7.53 -11.374,-13.03 -19.71,-14.3 -8.335,-1.27 -17.209,1.72 -23.078,7.77 -2.363,-1.92 -4.739,-3.85 -7.383,-5.37 -12.352,-7.06 -29.921,-2.66 -37.494,9.38 -0.252,0.4 -0.518,0.83 -0.948,1.03 -0.981,0.44 -1.967,-0.55 -2.645,-1.39 -6.608,-8.15 -18.4,-10.71 -28.676,-8.58 -1.14,0.24 -2.259,0.54 -3.367,0.87 -0.805,-4.78 -0.825,-10.41 0.315,-16.98 2.27,-13.09 9.681,-18.35 16.875,-20.26 4.762,2.28 9.347,4.94 13.686,7.91 3.405,2.34 7.032,5.59 6.711,9.71 3.347,-6.4 10.612,-10.16 17.825,-10.56 7.213,-0.41 14.329,2.14 20.552,5.81 2.657,1.57 5.373,3.6 6.172,6.57 2.595,-4.59 8.081,-6.94 13.351,-7.15 5.27,-0.2 10.428,1.39 15.442,3.03 5.776,1.88 12.179,4.43 14.471,10.06 4.3,-0.64 8.787,-1.27 12.919,0.08 4.905,1.6 8.595,5.85 10.702,10.56 2.106,4.71 1.872,9 2.516,14.12 -1.225,-6 -8.553,-8.72 -14.644,-8.09" />
            </g>
          </g>
        </g>
        <g
           transform="matrix(0.91916033,0,0,0.94785308,14.484955,23.08949)"
           id="g8371">
          <rect
             y="366.94455"
             x="94.25135"
             height="70.710922"
             width="169.85983"
             id="rect4226"
             style="fill:url(#linearGradient8417);fill-opacity:1;stroke:none;stroke-width:0.5;stroke-linejoin:round;stroke-miterlimit:4;stroke-dasharray:none;stroke-opacity:1;filter:url(#filter8483)" />
        </g>
      </g>
    </g>
    <g
       transform="translate(0,-9.762431)"
       id="g5786">
      <path
         id="path4158"
         d="m 386.62372,383.32362 c 20.28348,37.38459 18.16178,55.68421 -0.20857,55.68421 -18.37035,0 -21.10085,-16.44824 0.20857,-55.68421 z"
         style="fill:#1b9dc1;fill-opacity:1;fill-rule:evenodd;stroke:#105b70;stroke-width:1px;stroke-linecap:butt;stroke-linejoin:round;stroke-opacity:1" />
      <path
         id="rect4160"
         d="m 244.28806,387.21695 c 3.84916,-4.71342 7.76869,-4.21439 7.76869,-4.21439 l 8.77457,0 0,89.76157 -18.70498,0 -0.78293,-76.41063 c 0,0 -0.90452,-4.42314 2.94465,-9.13655 z"
         style="fill:#bfac82;fill-opacity:1;stroke:#7f6b41;stroke-width:1.29924166;stroke-linejoin:round;stroke-miterlimit:4;stroke-dasharray:none;stroke-opacity:1"
         transform="matrix(1,0,0.37841573,0.92563575,0,0)" />
      <g
         id="text4167"
         style="font-style:normal;font-weight:normal;font-size:101.49187469px;line-height:125%;font-family:sans-serif;letter-spacing:0px;word-spacing:0px;fill:#bfac82;fill-opacity:1;stroke:#7f6b41;stroke-width:1.25;stroke-linecap:butt;stroke-linejoin:round;stroke-miterlimit:4;stroke-dasharray:none;stroke-opacity:1"
         transform="scale(0.87575712,1.1418691)">
        <path
           id="path4174"
           style="font-style:normal;font-variant:normal;font-weight:normal;font-stretch:normal;font-family:'Arial Rounded MT Bold';-inkscape-font-specification:'Arial Rounded MT Bold, ';fill:#bfac82;fill-opacity:1;stroke:#7f6b41;stroke-width:1.25;stroke-linejoin:round;stroke-miterlimit:4;stroke-dasharray:none;stroke-opacity:1"
           d="m 410.04457,321.70053 -20.00088,0 c -6.11472,0 -7.3196,4.11959 -7.3196,5.96405 l 0,5.41296 c 0,3.65687 0.88573,6.45579 7.66957,6.39788 l 13.29139,-0.11347 c 2.24642,-0.0192 3.91496,0.51209 5.00521,1.53626 1.12328,0.99113 1.68492,2.31264 1.68492,3.96452 0,1.65189 -0.54512,3.00643 -1.63536,4.06364 -1.09025,1.02417 -2.77531,1.5168 -5.05477,1.53626 l -13.58334,0.11596 c -5.04326,-0.0662 -7.37762,3.30179 -7.37762,5.94019 l 0,7.79255 c 0,4.08631 1.4699,6.94391 7.53217,6.99533 l 20.92812,0 c 2.31264,0 4.04712,0.54512 5.20344,1.63537 1.18935,1.05721 1.78403,2.47783 1.78403,4.26186 0,1.71797 -0.59468,3.12207 -1.78403,4.21231 -1.15632,1.05721 -2.8908,1.58581 -5.20344,1.58581 l -38.59227,0 c -9.32128,1e-5 -9.32128,1e-5 -9.0193,-9.01929 l -0.24747,-52.14401 c -0.0545,-6.50426 8.27639,-11.48664 17.02075,-11.48664 l 29.69848,0 c 2.34568,0 4.08016,0.5286 5.20345,1.58581 1.15632,1.02417 1.73448,2.37871 1.73448,4.06364 0,1.71796 -0.57816,3.10554 -1.73448,4.16275 -1.12329,1.02417 -2.85777,1.53626 -5.20345,1.53626 z" />
      </g>
      <g
         id="text4178"
         style="font-style:normal;font-weight:normal;font-size:102.94826508px;line-height:125%;font-family:sans-serif;letter-spacing:0px;word-spacing:0px;fill:#bfac82;fill-opacity:1;stroke:#7f6b41;stroke-width:1.25;stroke-linecap:butt;stroke-linejoin:round;stroke-miterlimit:4;stroke-dasharray:none;stroke-opacity:1"
         transform="scale(0.88883081,1.1250735)">
        <path
           id="path4186"
           style="font-style:normal;font-variant:normal;font-weight:bold;font-stretch:normal;font-family:Arial;-inkscape-font-specification:'Arial Bold';fill:#bfac82;fill-opacity:1;stroke:#7f6b41;stroke-width:1.25;stroke-linejoin:round;stroke-miterlimit:4;stroke-dasharray:none;stroke-opacity:1"
           d="m 285.9826,388.67639 0,-62.39755 c -0.0215,-8.73873 9.65015,-11.29491 13.53051,-11.29491 l 17.78627,0 c 11.38786,-0.23921 22.09482,1.47143 26.98494,9.04819 2.14475,3.38469 4.34022,7.25531 4.34022,11.61184 0,5.52945 -1.62532,10.10381 -4.87597,13.72308 -2.38986,2.63624 -6.25621,5.24972 -10.70647,6.82185 -1.6029,0.56625 -2.77093,0.86093 -2.59209,1.64023 0.15995,0.69698 3.44904,4.73303 3.44904,4.73303 l 18.33639,26.11424 -20.04492,0 -11.56841,-15.88752 c -3.82035,-5.73052 -6.93342,-9.13587 -8.34091,-10.61038 -4.64609,-4.96539 -8.59575,-4.47167 -8.59575,-2.48828 l 0,28.98618 z m 17.70285,-41.68996 8.18502,0 c 7.13801,0 9.21266,-0.65016 10.98879,-1.25337 1.77613,-0.60321 3.60806,-2.13005 4.61341,-3.60457 1.00535,-1.47451 1.50803,-3.31766 1.50803,-5.52944 0,-2.47987 -1.19967,-5.17093 -2.54014,-6.67896 -1.30696,-1.54155 -3.69629,-2.86194 -6.10914,-3.26408 -1.20643,-0.16756 -1.82561,-0.25134 -7.85774,-0.25134 l -8.78823,0 z" />
      </g>
      <g
         id="text4188"
         style="font-style:normal;font-weight:normal;font-size:103.03801727px;line-height:125%;font-family:sans-serif;letter-spacing:0px;word-spacing:0px;fill:#bfac82;fill-opacity:1;stroke:#7f6b41;stroke-width:1.25;stroke-linecap:butt;stroke-linejoin:round;stroke-miterlimit:4;stroke-dasharray:none;stroke-opacity:1"
         transform="scale(0.87625707,1.1412176)">
        <path
           id="path4193"
           style="font-style:normal;font-variant:normal;font-weight:normal;font-stretch:normal;font-family:'Arial Rounded MT Bold';-inkscape-font-specification:'Arial Rounded MT Bold, ';fill:#bfac82;fill-opacity:1;stroke:#7f6b41;stroke-width:1.25;stroke-linejoin:round;stroke-miterlimit:4;stroke-dasharray:none;stroke-opacity:1"
           d="m 285.01364,379.82926 c -7.49499,5.22277 -17.37282,5.02596 -26.88923,4.80204 -18.45092,-0.43414 -29.52843,-9.99671 -33.17599,-18.08452 -1.35144,-2.99657 -2.41495,-5.95353 -3.11931,-9.20701 -0.67082,-3.25348 -1.00623,-6.7082 -1.00623,-10.36417 0,-5.93676 0.8553,-11.25301 2.56589,-15.94876 2.9387,-8.71639 9.4852,-14.67725 18.7662,-18.40579 4.1565,-1.61338 4.75027,-1.90531 11.05858,-3.12261 9.50853,-1.83483 28.69306,-0.75963 31.08076,5.38322 1.27493,3.28 -5.204,9.23135 -9.12698,7.50592 -4.59467,-2.02086 -7.28479,-1.87343 -10.57992,-1.83853 -23.56941,0.24966 -21.69397,17.14394 -21.77345,26.92966 0,5.73551 0.80498,10.51511 2.41495,14.33879 1.60997,3.79013 3.89076,6.62435 6.84237,8.50265 2.95161,1.87829 6.6096,3.37083 10.36418,3.38715 9.7293,0.0423 11.14141,-3.02448 16.50021,-3.46998 6.62988,-1.02721 9.9743,6.87685 6.07797,9.59194 z" />
      </g>
      <g
         id="text4195"
         style="font-style:normal;font-weight:normal;font-size:125.69056702px;line-height:125%;font-family:sans-serif;letter-spacing:0px;word-spacing:0px;fill:none;fill-opacity:1;stroke:#7f6b41;stroke-width:1.31139171;stroke-linecap:butt;stroke-linejoin:round;stroke-miterlimit:4;stroke-dasharray:none;stroke-opacity:1"
         transform="matrix(0.98366668,0,0,0.92364954,25.610464,18.11935)">
        <path
           id="path4200"
           style="font-style:normal;font-variant:normal;font-weight:bold;font-stretch:normal;font-family:Arial;-inkscape-font-specification:'Arial Bold';fill:#bfac82;fill-opacity:1;stroke:#7f6b41;stroke-width:1.31139171;stroke-linejoin:round;stroke-miterlimit:4;stroke-dasharray:none;stroke-opacity:1"
           d="m 425.47315,454.16452 7.31733,-89.97186 22.25301,0 10.75437,47.3383 c 1.24745,5.4899 5.11783,5.50671 6.48771,-0.19897 l 10.96963,-47.32056 21.80386,0.18123 7.31733,89.97186 -16.87739,0 -2.57716,-47.82126 c -1.04516,-6.4377 -3.70266,-3.32447 -4.41843,0.12753 l -13.24616,47.69376 -14.08771,0 -10.99576,-43.84032 c -1.53867,-8.05092 -5.71757,-9.93261 -5.90788,0.37149 l -1.91536,43.46883 z" />
      </g>
    </g>
    <g
       id="g8525"
       style="font-style:normal;font-weight:normal;font-size:103.03801727px;line-height:125%;font-family:sans-serif;letter-spacing:0px;word-spacing:0px;fill:#000000;fill-opacity:1;stroke:none;stroke-width:0.1;stroke-linecap:butt;stroke-linejoin:miter;stroke-miterlimit:4;stroke-dasharray:none;stroke-opacity:1"
       transform="scale(0.87625707,1.1412176)" />
    <g
       id="text4233"
       style="font-style:normal;font-variant:normal;font-weight:bold;font-stretch:normal;font-size:25.17676163px;line-height:125%;font-family:Corbel;-inkscape-font-specification:'Corbel, Bold';text-align:center;letter-spacing:0px;word-spacing:0px;writing-mode:lr-tb;text-anchor:middle;fill:#000000;fill-opacity:1;stroke:none;stroke-width:1px;stroke-linecap:butt;stroke-linejoin:miter;stroke-opacity:1">
      <path
         id="path4242"
         style="font-size:14.31612206px;text-align:start;text-anchor:start"
         d="m 107.20344,440.21396 q 0,0.60816 -0.27262,1.11845 -0.27262,0.5033 -0.90175,0.83883 l 0,0.028 q 0.34952,0.11884 0.63612,0.30758 0.29359,0.18175 0.49631,0.44039 0.20971,0.25165 0.32156,0.5732 0.11883,0.32155 0.11883,0.72 0,0.34253 -0.11184,0.73398 -0.10486,0.39146 -0.37748,0.76194 -0.27262,0.3635 -0.72699,0.67107 -0.45437,0.30757 -1.14641,0.48932 -0.17476,0.0419 -0.38447,0.0769 -0.20271,0.0349 -0.45436,0.0629 -0.25166,0.021 -0.55923,0.0349 -0.30757,0.007 -0.69204,0.007 l -2.71922,0 0,-9.35301 3.25049,0 q 1.04155,0 1.67767,0.20971 0.47534,0.15378 0.82485,0.40543 0.34952,0.24466 0.5732,0.55224 0.23068,0.30058 0.33554,0.6431 0.11184,0.33554 0.11184,0.67806 z m -5.06097,2.79612 0,2.63534 1.11845,0 q 0.44738,0 0.76893,-0.021 0.32155,-0.028 0.55223,-0.0839 0.35651,-0.0769 0.59418,-0.20272 0.23767,-0.13282 0.38446,-0.2936 0.1468,-0.16776 0.20971,-0.36349 0.0629,-0.20272 0.0629,-0.42641 0,-0.39146 -0.2167,-0.68505 -0.2167,-0.29359 -0.67806,-0.44039 -0.20272,-0.0629 -0.47534,-0.0909 -0.27262,-0.028 -0.69903,-0.028 l -1.62175,0 z m 1.54486,-1.43301 q 0.69902,0 1.04155,-0.13981 0.38447,-0.16077 0.54524,-0.44039 0.16777,-0.2866 0.16777,-0.6431 0,-0.37049 -0.18874,-0.65709 -0.18874,-0.29359 -0.64311,-0.4334 -0.18873,-0.0559 -0.44038,-0.0769 -0.25165,-0.028 -0.62214,-0.028 l -1.40505,0 0,2.41864 1.54486,0 z" />
      <path
         id="path4244"
         style="font-size:14.31612206px;text-align:start;text-anchor:start"
         d="m 113.22209,447.25319 q -0.73398,0 -1.32117,-0.1468 -0.58718,-0.1398 -1.03456,-0.40544 -0.44738,-0.27262 -0.76195,-0.65708 -0.31456,-0.39146 -0.5033,-0.88078 -0.15378,-0.39146 -0.22369,-0.8668 -0.0629,-0.47534 -0.0629,-1.06252 l 0,-5.50835 1.71262,0 0,5.35456 q 0,0.99262 0.23767,1.55185 0.26563,0.62213 0.77593,0.90175 0.51029,0.27262 1.20233,0.27262 0.69204,0 1.20233,-0.27262 0.51029,-0.27962 0.77592,-0.90175 0.23767,-0.55923 0.23767,-1.55185 l 0,-5.35456 1.71262,0 0,5.50835 q 0,0.58718 -0.0699,1.06252 -0.0629,0.47534 -0.2167,0.8668 -0.18874,0.48932 -0.51029,0.88078 -0.31456,0.38446 -0.77592,0.65708 -0.45437,0.26564 -1.04855,0.40544 -0.59417,0.1468 -1.32815,0.1468 z" />
      <path
         id="path4246"
         style="font-size:14.31612206px;text-align:start;text-anchor:start"
         d="m 119.38752,447.07843 0,-9.35301 1.71263,0 0,9.35301 -1.71263,0 z" />
      <path
         id="path4248"
         style="font-size:14.31612206px;text-align:start;text-anchor:start"
         d="m 125.04267,437.72542 0,7.92 4.37593,0 0,1.43301 -6.08855,0 0,-9.35301 1.71262,0 z" />
      <path
         id="path4250"
         style="font-size:14.31612206px;text-align:start;text-anchor:start"
         d="m 131.01938,447.07843 0,-9.35301 2.47456,0 q 0.32854,0 0.66408,0.021 0.34252,0.021 0.66408,0.0629 0.32155,0.0419 0.62213,0.10485 0.30058,0.0559 0.55223,0.13981 0.74797,0.23767 1.32117,0.64311 0.5732,0.40543 0.95767,0.95767 0.39146,0.55223 0.58719,1.23728 0.20271,0.67806 0.20271,1.47495 0,0.75495 -0.16776,1.41903 -0.16777,0.65709 -0.51029,1.20233 -0.34253,0.54525 -0.8668,0.96466 -0.51728,0.41243 -1.23029,0.67806 -0.59418,0.22369 -1.34913,0.33554 -0.75495,0.11184 -1.69864,0.11184 l -2.22291,0 z m 2.41864,-1.43301 q 1.50291,0 2.34874,-0.41243 0.74796,-0.37048 1.13242,-1.0765 0.38447,-0.70602 0.38447,-1.8035 0,-0.5732 -0.12583,-1.03456 -0.12582,-0.46136 -0.36349,-0.81787 -0.23767,-0.36349 -0.5802,-0.62213 -0.33553,-0.25864 -0.76194,-0.42641 -0.39844,-0.15379 -0.88776,-0.22369 -0.48933,-0.0699 -1.09748,-0.0699 l -0.75495,0 0,6.48699 0.70602,0 z" />
      <path
         id="path4252"
         style="font-size:14.31612206px;text-align:start;text-anchor:start"
         d="m 140.88967,447.07843 0,-9.35301 1.71262,0 0,9.35301 -1.71262,0 z" />
      <path
         id="path4254"
         style="font-size:14.31612206px;text-align:start;text-anchor:start"
         d="m 149.70443,442.07338 q 1.0066,1.43301 1.63573,2.54447 l 0.0419,0 q -0.0839,-1.82447 -0.0839,-2.65632 l 0,-4.23611 1.71262,0 0,9.35301 -1.79651,0 -3.04776,-4.30602 q -0.80389,-1.11845 -1.66369,-2.5934 l -0.042,0 q 0.0839,1.71961 0.0839,2.6633 l 0,4.23612 -1.71262,0 0,-9.35301 1.7965,0 3.07573,4.34796 z" />
      <path
         id="path4256"
         style="font-size:14.31612206px;text-align:start;text-anchor:start"
         d="m 161.07764,443.50639 -2.09709,0 0,-1.43301 3.80971,0 0,4.71845 q -0.20971,0.0769 -0.53825,0.16077 -0.32155,0.0839 -0.72699,0.1468 -0.39845,0.0699 -0.82486,0.11185 -0.4264,0.0419 -0.84582,0.0419 -1.25825,0 -2.20194,-0.33554 -0.9367,-0.34252 -1.56583,-0.95767 -0.62214,-0.61514 -0.9367,-1.46097 -0.30757,-0.85281 -0.30757,-1.88039 0,-0.72699 0.16077,-1.38408 0.16777,-0.66407 0.48234,-1.2233 0.32155,-0.56621 0.77592,-1.02058 0.45437,-0.45437 1.03456,-0.77592 0.58719,-0.32156 1.27922,-0.48932 0.69903,-0.17476 1.49593,-0.17476 0.70602,0 1.34213,0.10485 0.63612,0.0979 1.04156,0.24466 l 0,1.45399 q -0.54524,-0.17476 -1.10447,-0.26564 -0.55223,-0.0909 -1.11845,-0.0909 -0.76194,0 -1.42602,0.23068 -0.66407,0.22369 -1.15339,0.67107 -0.48233,0.44039 -0.76195,1.09048 -0.27961,0.6501 -0.27961,1.50292 0.007,1.6567 0.8668,2.48854 0.8598,0.82486 2.43961,0.82486 0.29359,0 0.60816,-0.028 0.31456,-0.035 0.55223,-0.0839 l 0,-2.18796 z" />
      <path
         id="path4258"
         style="font-size:14.31612206px;text-align:start;text-anchor:start"
         d="m 171.8357,438.99765 q -0.69903,0 -1.2932,0.23068 -0.58719,0.23068 -1.0136,0.67107 -0.41941,0.44039 -0.65708,1.09048 -0.23767,0.64311 -0.23767,1.47496 0,0.82485 0.2167,1.45398 0.21669,0.62213 0.62213,1.04155 0.40544,0.41942 0.98563,0.63612 0.58719,0.20971 1.32816,0.20971 0.53126,0 1.08349,-0.0839 0.55224,-0.0839 1.03457,-0.24466 l 0,1.47495 q -0.48932,0.13981 -1.05554,0.2167 -0.56621,0.0839 -1.17437,0.0839 -1.18835,0 -2.09009,-0.33554 -0.90175,-0.34252 -1.50991,-0.95767 -0.60116,-0.62213 -0.90874,-1.48194 -0.30058,-0.8668 -0.30058,-1.90835 0,-1.06951 0.32156,-1.98524 0.32854,-0.91573 0.93669,-1.5868 0.61515,-0.67107 1.53088,-1.05553 0.92272,-0.38447 2.08311,-0.39146 0.59417,0 1.12543,0.0839 0.53127,0.0769 0.95767,0.22369 l 0,1.45398 q -0.55922,-0.17475 -1.04155,-0.24466 -0.48233,-0.0699 -0.94369,-0.0699 z" />
      <path
         id="path4260"
         style="font-size:14.31612206px;text-align:start;text-anchor:start"
         d="m 177.35803,437.72542 0,7.92 4.37593,0 0,1.43301 -6.08855,0 0,-9.35301 1.71262,0 z" />
      <path
         id="path4262"
         style="font-size:14.31612206px;text-align:start;text-anchor:start"
         d="m 183.33473,447.07843 0,-9.35301 1.71262,0 0,9.35301 -1.71262,0 z" />
      <path
         id="path4264"
         style="font-size:14.31612206px;text-align:start;text-anchor:start"
         d="m 192.08658,444.56891 q 0.30758,-1.10446 0.76194,-2.36971 l 1.61476,-4.47378 2.40466,0 0,9.35301 -1.71262,0 0,-4.73942 q 0,-1.04155 0.0839,-2.41864 l -0.0629,0 q -0.11883,0.39845 -0.27961,0.89476 -0.16078,0.49631 -0.33553,0.97864 l -1.93631,5.28466 -1.10447,0 -1.93631,-5.28466 q -0.17476,-0.48233 -0.33554,-0.97864 -0.16077,-0.49631 -0.27961,-0.89476 l -0.0629,0 q 0.0839,1.2932 0.0839,2.41165 l 0,4.74641 -1.71262,0 0,-9.35301 2.39068,0 1.61476,4.45281 q 0.40544,1.11146 0.76194,2.39068 l 0.0419,0 z" />
      <path
         id="path4266"
         style="font-size:14.31612206px;text-align:start;text-anchor:start"
         d="m 204.4594,444.69474 -3.52311,0 -0.91573,2.38369 -1.82446,0 3.71184,-9.35301 1.56583,0 3.71185,9.35301 -1.81049,0 -0.91573,-2.38369 z m -1.77553,-4.71845 q -0.48932,1.46796 -0.87379,2.45359 l -0.32155,0.83185 2.41864,0 -0.32156,-0.83185 q -0.38446,-0.99262 -0.87378,-2.45359 l -0.028,0 z" />
      <path
         id="path4268"
         style="font-size:14.31612206px;text-align:start;text-anchor:start"
         d="m 211.5965,447.07843 -1.71263,0 0,-7.92 -3.0198,0 0,-1.43301 7.74524,0 0,1.43301 -3.01281,0 0,7.92 z" />
      <path
         id="path4270"
         style="font-size:14.31612206px;text-align:start;text-anchor:start"
         d="m 217.65009,445.64542 4.59962,0 0,1.43301 -6.31224,0 0,-9.35301 6.06059,0 0,1.43301 -4.34797,0 0,2.41864 3.73282,0 0,1.43301 -3.73282,0 0,2.63534 z" />
      <path
         id="path4272"
         style="font-size:14.31612206px;text-align:start;text-anchor:start"
         d="m 233.95845,440.53552 q 0,0.97864 -0.54525,1.66368 -0.53825,0.67806 -1.67068,1.00661 l 0,0.028 2.78214,3.84466 -2.05515,0 -2.54446,-3.62097 -1.17437,0 0,3.62097 -1.71262,0 0,-9.35301 2.84505,0 q 0.70602,0 1.31417,0.0839 0.60816,0.0769 1.04155,0.23767 0.82486,0.31456 1.27224,0.9367 0.44738,0.61515 0.44738,1.55185 z m -4.36195,1.48893 q 0.58719,0 0.99263,-0.0489 0.41242,-0.0559 0.69203,-0.16078 0.51729,-0.19573 0.71301,-0.53126 0.20272,-0.34253 0.20272,-0.78292 0,-0.37747 -0.16077,-0.66407 -0.15379,-0.2936 -0.53127,-0.46136 -0.24466,-0.11185 -0.61514,-0.16078 -0.37049,-0.0559 -0.91573,-0.0559 l -1.2233,0 0,2.86602 0.84582,0 z" />
      <path
         id="path4274"
         style="font-size:14.31612206px;text-align:start;text-anchor:start"
         d="m 237.75418,445.64542 4.59961,0 0,1.43301 -6.31223,0 0,-9.35301 6.06058,0 0,1.43301 -4.34796,0 0,2.41864 3.73282,0 0,1.43301 -3.73282,0 0,2.63534 z" />
      <path
         id="path4276"
         style="font-size:14.31612206px;text-align:start;text-anchor:start"
         d="m 248.77787,444.39416 q 0,-0.35651 -0.17475,-0.57321 -0.17476,-0.22369 -0.47534,-0.36349 -0.30059,-0.13981 -0.67806,-0.22369 -0.37049,-0.0909 -0.78291,-0.17476 -0.54525,-0.11883 -1.04156,-0.27961 -0.49631,-0.16777 -0.87378,-0.45437 -0.37748,-0.29359 -0.60117,-0.74097 -0.22369,-0.44738 -0.22369,-1.11845 0,-0.74097 0.25864,-1.28621 0.25864,-0.55224 0.69903,-0.90874 0.44738,-0.3635 1.04155,-0.53825 0.60117,-0.18175 1.34913,-0.18175 0.74796,0 1.50291,0.1468 0.75496,0.14679 1.3002,0.37747 l 0,1.46796 q -0.72699,-0.2866 -1.39806,-0.41242 -0.66408,-0.13282 -1.25126,-0.13282 -0.84583,0 -1.30719,0.30757 -0.45437,0.30758 -0.45437,0.92272 0,0.35651 0.1468,0.58719 0.15379,0.23068 0.41243,0.38446 0.25864,0.1468 0.59417,0.23767 0.33554,0.0909 0.71301,0.16777 0.59418,0.12583 1.13243,0.29359 0.54524,0.16078 0.96466,0.45437 0.41942,0.29359 0.66408,0.76893 0.24466,0.46835 0.24466,1.20233 0,0.75496 -0.27961,1.30719 -0.27961,0.55223 -0.7969,0.91573 -0.51029,0.3565 -1.24427,0.53126 -0.73398,0.17476 -1.60777,0.17476 -0.76194,0 -1.50291,-0.15379 -0.73398,-0.1468 -1.2233,-0.41942 l 0,-1.44699 q 0.69204,0.30059 1.34913,0.44039 0.65708,0.13282 1.35611,0.13282 0.40544,0 0.7969,-0.0629 0.39145,-0.0699 0.69903,-0.23068 0.31456,-0.16077 0.5033,-0.43339 0.18873,-0.27962 0.18873,-0.68505 z" />
      <path
         id="path4278"
         style="font-size:14.31612206px;text-align:start;text-anchor:start"
         d="m 252.45477,447.07843 0,-9.35301 1.71262,0 0,9.35301 -1.71262,0 z" />
      <path
         id="path4280"
         style="font-size:14.31612206px;text-align:start;text-anchor:start"
         d="m 258.10991,437.72542 0,7.92 4.37592,0 0,1.43301 -6.08854,0 0,-9.35301 1.71262,0 z" />
      <path
         id="path4282"
         style="font-size:14.31612206px;text-align:start;text-anchor:start"
         d="m 264.08662,447.07843 0,-9.35301 1.71262,0 0,9.35301 -1.71262,0 z" />
      <path
         id="path4284"
         style="font-size:14.31612206px;text-align:start;text-anchor:start"
         d="m 269.74176,445.64542 4.59961,0 0,1.43301 -6.31223,0 0,-9.35301 6.06058,0 0,1.43301 -4.34796,0 0,2.41864 3.73282,0 0,1.43301 -3.73282,0 0,2.63534 z" />
      <path
         id="path4286"
         style="font-size:14.31612206px;text-align:start;text-anchor:start"
         d="m 281.03808,442.07338 q 1.0066,1.43301 1.63572,2.54447 l 0.0419,0 q -0.0839,-1.82447 -0.0839,-2.65632 l 0,-4.23611 1.71262,0 0,9.35301 -1.7965,0 -3.04777,-4.30602 q -0.80388,-1.11845 -1.66369,-2.5934 l -0.0419,0 q 0.0839,1.71961 0.0839,2.6633 l 0,4.23612 -1.71262,0 0,-9.35301 1.79651,0 3.07573,4.34796 z" />
      <path
         id="path4288"
         style="font-size:14.31612206px;text-align:start;text-anchor:start"
         d="m 291.14604,438.99765 q -0.69903,0 -1.2932,0.23068 -0.58719,0.23068 -1.0136,0.67107 -0.41941,0.44039 -0.65708,1.09048 -0.23767,0.64311 -0.23767,1.47496 0,0.82485 0.2167,1.45398 0.2167,0.62213 0.62213,1.04155 0.40544,0.41942 0.98563,0.63612 0.58719,0.20971 1.32816,0.20971 0.53126,0 1.0835,-0.0839 0.55223,-0.0839 1.03456,-0.24466 l 0,1.47495 q -0.48932,0.13981 -1.05554,0.2167 -0.56621,0.0839 -1.17436,0.0839 -1.18835,0 -2.0901,-0.33554 -0.90175,-0.34252 -1.50991,-0.95767 -0.60116,-0.62213 -0.90873,-1.48194 -0.30059,-0.8668 -0.30059,-1.90835 0,-1.06951 0.32156,-1.98524 0.32854,-0.91573 0.9367,-1.5868 0.61514,-0.67107 1.53087,-1.05553 0.92272,-0.38447 2.08311,-0.39146 0.59417,0 1.12544,0.0839 0.53126,0.0769 0.95767,0.22369 l 0,1.45398 q -0.55923,-0.17475 -1.04156,-0.24466 -0.48233,-0.0699 -0.94369,-0.0699 z" />
      <path
         id="path4290"
         style="font-size:14.31612206px;text-align:start;text-anchor:start"
         d="m 296.66838,445.64542 4.59961,0 0,1.43301 -6.31223,0 0,-9.35301 6.06058,0 0,1.43301 -4.34796,0 0,2.41864 3.73282,0 0,1.43301 -3.73282,0 0,2.63534 z" />
      <path
         id="path4292"
         style="font-size:14.31612206px;text-align:start;text-anchor:start"
         d="m 306.05634,447.07843 0,-9.35301 1.71263,0 0,9.35301 -1.71263,0 z" />
      <path
         id="path4294"
         style="font-size:14.31612206px;text-align:start;text-anchor:start"
         d="m 314.8711,442.07338 q 1.0066,1.43301 1.63573,2.54447 l 0.0419,0 q -0.0839,-1.82447 -0.0839,-2.65632 l 0,-4.23611 1.71262,0 0,9.35301 -1.79651,0 -3.04777,-4.30602 q -0.80388,-1.11845 -1.66369,-2.5934 l -0.0419,0 q 0.0839,1.71961 0.0839,2.6633 l 0,4.23612 -1.71263,0 0,-9.35301 1.79651,0 3.07573,4.34796 z" />
      <path
         id="path4296"
         style="font-size:14.31612206px;text-align:start;text-anchor:start"
         d="m 324.25207,447.07843 -1.71262,0 0,-7.92 -3.0198,0 0,-1.43301 7.74524,0 0,1.43301 -3.01282,0 0,7.92 z" />
      <path
         id="path4298"
         style="font-size:14.31612206px;text-align:start;text-anchor:start"
         d="m 335.1849,442.40192 q 0,-0.85281 -0.20971,-1.48893 -0.20971,-0.64311 -0.5802,-1.06951 -0.37048,-0.42641 -0.88077,-0.63612 -0.51029,-0.20971 -1.11845,-0.20971 -0.60816,0 -1.11845,0.20971 -0.51029,0.20971 -0.88077,0.63612 -0.37049,0.4264 -0.5802,1.06951 -0.20971,0.63612 -0.20971,1.48893 0,0.85282 0.20971,1.49593 0.20971,0.63611 0.5802,1.06252 0.37048,0.41942 0.88077,0.63612 0.51029,0.20971 1.11845,0.20971 0.60816,0 1.11845,-0.20971 0.51029,-0.2167 0.88077,-0.63612 0.37049,-0.42641 0.5802,-1.06252 0.20971,-0.64311 0.20971,-1.49593 z m 1.76854,0 q 0,1.06952 -0.30757,1.96428 -0.30058,0.88776 -0.88777,1.53087 -0.58019,0.64311 -1.43301,0.99961 -0.84582,0.35651 -1.92932,0.35651 -1.0835,0 -1.93631,-0.35651 -0.84583,-0.3565 -1.43301,-0.99961 -0.5802,-0.64311 -0.88777,-1.53087 -0.30058,-0.89476 -0.30058,-1.96428 0,-1.06951 0.30058,-1.95728 0.30757,-0.89476 0.88777,-1.53786 0.58718,-0.64311 1.43301,-0.99962 0.85281,-0.3565 1.93631,-0.3565 1.0835,0 1.92932,0.3565 0.85282,0.35651 1.43301,0.99962 0.58719,0.6431 0.88777,1.53786 0.30757,0.88777 0.30757,1.95728 z" />
      <path
         id="path4300"
         style="font-size:14.31612206px;text-align:start;text-anchor:start"
         d="m 348.50839,440.21396 q 0,0.60816 -0.27262,1.11845 -0.27262,0.5033 -0.90175,0.83883 l 0,0.028 q 0.34952,0.11884 0.63612,0.30758 0.29359,0.18175 0.49631,0.44039 0.20971,0.25165 0.32155,0.5732 0.11884,0.32155 0.11884,0.72 0,0.34253 -0.11185,0.73398 -0.10485,0.39146 -0.37747,0.76194 -0.27263,0.3635 -0.72699,0.67107 -0.45437,0.30757 -1.14641,0.48932 -0.17476,0.0419 -0.38447,0.0769 -0.20272,0.0349 -0.45437,0.0629 -0.25165,0.021 -0.55922,0.0349 -0.30757,0.007 -0.69204,0.007 l -2.71922,0 0,-9.35301 3.25048,0 q 1.04156,0 1.67767,0.20971 0.47534,0.15378 0.82486,0.40543 0.34951,0.24466 0.5732,0.55224 0.23068,0.30058 0.33554,0.6431 0.11184,0.33554 0.11184,0.67806 z m -5.06097,2.79612 0,2.63534 1.11844,0 q 0.44738,0 0.76894,-0.021 0.32155,-0.028 0.55223,-0.0839 0.3565,-0.0769 0.59417,-0.20272 0.23767,-0.13282 0.38447,-0.2936 0.1468,-0.16776 0.20971,-0.36349 0.0629,-0.20272 0.0629,-0.42641 0,-0.39146 -0.2167,-0.68505 -0.2167,-0.29359 -0.67806,-0.44039 -0.20271,-0.0629 -0.47534,-0.0909 -0.27262,-0.028 -0.69902,-0.028 l -1.62175,0 z m 1.54485,-1.43301 q 0.69903,0 1.04156,-0.13981 0.38446,-0.16077 0.54524,-0.44039 0.16777,-0.2866 0.16777,-0.6431 0,-0.37049 -0.18874,-0.65709 -0.18874,-0.29359 -0.64311,-0.4334 -0.18874,-0.0559 -0.44039,-0.0769 -0.25165,-0.028 -0.62213,-0.028 l -1.40505,0 0,2.41864 1.54485,0 z" />
      <path
         id="path4302"
         style="font-size:14.31612206px;text-align:start;text-anchor:start"
         d="m 356.00898,444.69474 -3.52311,0 -0.91573,2.38369 -1.82447,0 3.71185,-9.35301 1.56583,0 3.71184,9.35301 -1.81048,0 -0.91573,-2.38369 z m -1.77554,-4.71845 q -0.48932,1.46796 -0.87378,2.45359 l -0.32156,0.83185 2.41864,0 -0.32155,-0.83185 q -0.38447,-0.99262 -0.87379,-2.45359 l -0.028,0 z" />
      <path
         id="path4304"
         style="font-size:14.31612206px;text-align:start;text-anchor:start"
         d="m 364.67695,444.39416 q 0,-0.35651 -0.17475,-0.57321 -0.17476,-0.22369 -0.47534,-0.36349 -0.30059,-0.13981 -0.67806,-0.22369 -0.37049,-0.0909 -0.78292,-0.17476 -0.54524,-0.11883 -1.04155,-0.27961 -0.49631,-0.16777 -0.87379,-0.45437 -0.37747,-0.29359 -0.60116,-0.74097 -0.22369,-0.44738 -0.22369,-1.11845 0,-0.74097 0.25864,-1.28621 0.25864,-0.55224 0.69903,-0.90874 0.44738,-0.3635 1.04155,-0.53825 0.60117,-0.18175 1.34913,-0.18175 0.74796,0 1.50291,0.1468 0.75496,0.14679 1.3002,0.37747 l 0,1.46796 q -0.72699,-0.2866 -1.39806,-0.41242 -0.66408,-0.13282 -1.25126,-0.13282 -0.84583,0 -1.30719,0.30757 -0.45437,0.30758 -0.45437,0.92272 0,0.35651 0.1468,0.58719 0.15379,0.23068 0.41243,0.38446 0.25864,0.1468 0.59417,0.23767 0.33554,0.0909 0.71301,0.16777 0.59418,0.12583 1.13243,0.29359 0.54524,0.16078 0.96466,0.45437 0.41942,0.29359 0.66408,0.76893 0.24466,0.46835 0.24466,1.20233 0,0.75496 -0.27961,1.30719 -0.27962,0.55223 -0.7969,0.91573 -0.51029,0.3565 -1.24427,0.53126 -0.73398,0.17476 -1.60777,0.17476 -0.76194,0 -1.50291,-0.15379 -0.73398,-0.1468 -1.2233,-0.41942 l 0,-1.44699 q 0.69204,0.30059 1.34912,0.44039 0.65709,0.13282 1.35612,0.13282 0.40544,0 0.79689,-0.0629 0.39146,-0.0699 0.69903,-0.23068 0.31457,-0.16077 0.50331,-0.43339 0.18873,-0.27962 0.18873,-0.68505 z" />
      <path
         id="path4306"
         style="font-size:14.31612206px;text-align:start;text-anchor:start"
         d="m 368.35383,447.07843 0,-9.35301 1.71262,0 0,9.35301 -1.71262,0 z" />
      <path
         id="path4308"
         style="font-size:14.31612206px;text-align:start;text-anchor:start"
         d="m 377.1686,442.07338 q 1.0066,1.43301 1.63573,2.54447 l 0.0419,0 q -0.0839,-1.82447 -0.0839,-2.65632 l 0,-4.23611 1.71262,0 0,9.35301 -1.79651,0 -3.04777,-4.30602 q -0.80388,-1.11845 -1.66369,-2.5934 l -0.0419,0 q 0.0839,1.71961 0.0839,2.6633 l 0,4.23612 -1.71263,0 0,-9.35301 1.79651,0 3.07573,4.34796 z" />
      <path
         id="path4310"
         style="font-size:14.31612206px;text-align:start;text-anchor:start"
         d="m 390.31036,440.186 q -0.27262,1.30719 -0.62913,2.69825 l -1.04854,4.19418 -1.70563,0 -2.97088,-9.35301 1.82447,0 1.12544,3.72582 q 0.51029,1.75457 0.82485,3.1736 l 0.0419,0 q 0.30758,-1.52389 0.71301,-3.12466 l 0.96466,-3.77476 1.76156,0 0.96466,3.77476 q 0.40543,1.58679 0.71301,3.12466 l 0.0419,0 q 0.38447,-1.67767 0.82485,-3.1736 l 1.12544,-3.72582 1.82447,0 -2.97088,9.35301 -1.70563,0 -1.04854,-4.19418 q -0.35651,-1.41903 -0.62913,-2.69825 l -0.0419,0 z" />
      <path
         id="path4312"
         style="font-size:14.31612206px;text-align:start;text-anchor:start"
         d="m 402.73211,444.69474 -3.52311,0 -0.91573,2.38369 -1.82447,0 3.71185,-9.35301 1.56583,0 3.71184,9.35301 -1.81049,0 -0.91572,-2.38369 z m -1.77554,-4.71845 q -0.48932,1.46796 -0.87378,2.45359 l -0.32156,0.83185 2.41864,0 -0.32155,-0.83185 q -0.38447,-0.99262 -0.87379,-2.45359 l -0.028,0 z" />
      <path
         id="path4314"
         style="font-size:14.31612206px;text-align:start;text-anchor:start"
         d="m 409.8692,447.07843 -1.71262,0 0,-7.92 -3.01981,0 0,-1.43301 7.74525,0 0,1.43301 -3.01282,0 0,7.92 z" />
      <path
         id="path4316"
         style="font-size:14.31612206px;text-align:start;text-anchor:start"
         d="m 415.9228,445.64542 4.59962,0 0,1.43301 -6.31224,0 0,-9.35301 6.06059,0 0,1.43301 -4.34797,0 0,2.41864 3.73282,0 0,1.43301 -3.73282,0 0,2.63534 z" />
      <path
         id="path4318"
         style="font-size:14.31612206px;text-align:start;text-anchor:start"
         d="m 429.26726,440.53552 q 0,0.97864 -0.54524,1.66368 -0.53825,0.67806 -1.67068,1.00661 l 0,0.028 2.78214,3.84466 -2.05515,0 -2.54447,-3.62097 -1.17437,0 0,3.62097 -1.71262,0 0,-9.35301 2.84505,0 q 0.70602,0 1.31418,0.0839 0.60815,0.0769 1.04155,0.23767 0.82485,0.31456 1.27223,0.9367 0.44738,0.61515 0.44738,1.55185 z m -4.36194,1.48893 q 0.58718,0 0.99262,-0.0489 0.41243,-0.0559 0.69204,-0.16078 0.51728,-0.19573 0.71301,-0.53126 0.20272,-0.34253 0.20272,-0.78292 0,-0.37747 -0.16078,-0.66407 -0.15379,-0.2936 -0.53126,-0.46136 -0.24466,-0.11185 -0.61515,-0.16078 -0.37048,-0.0559 -0.91573,-0.0559 l -1.2233,0 0,2.86602 0.84583,0 z" />
      <path
         id="path4320"
         style="font-size:14.31612206px;text-align:start;text-anchor:start"
         d="m 439.12357,444.56891 q 0.30757,-1.10446 0.76194,-2.36971 l 1.61476,-4.47378 2.40466,0 0,9.35301 -1.71262,0 0,-4.73942 q 0,-1.04155 0.0839,-2.41864 l -0.0629,0 q -0.11883,0.39845 -0.27961,0.89476 -0.16078,0.49631 -0.33554,0.97864 l -1.93631,5.28466 -1.10446,0 -1.93632,-5.28466 q -0.17475,-0.48233 -0.33553,-0.97864 -0.16078,-0.49631 -0.27961,-0.89476 l -0.0629,0 q 0.0839,1.2932 0.0839,2.41165 l 0,4.74641 -1.71262,0 0,-9.35301 2.39068,0 1.61476,4.45281 q 0.40543,1.11146 0.76194,2.39068 l 0.0419,0 z" />
      <path
         id="path4322"
         style="font-size:14.31612206px;text-align:start;text-anchor:start"
         d="m 451.49639,444.69474 -3.52311,0 -0.91573,2.38369 -1.82446,0 3.71184,-9.35301 1.56583,0 3.71184,9.35301 -1.81048,0 -0.91573,-2.38369 z m -1.77554,-4.71845 q -0.48932,1.46796 -0.87378,2.45359 l -0.32156,0.83185 2.41865,0 -0.32156,-0.83185 q -0.38446,-0.99262 -0.87378,-2.45359 l -0.028,0 z" />
      <path
         id="path4324"
         style="font-size:14.31612206px;text-align:start;text-anchor:start"
         d="m 460.43697,442.07338 q 1.0066,1.43301 1.63573,2.54447 l 0.0419,0 q -0.0839,-1.82447 -0.0839,-2.65632 l 0,-4.23611 1.71262,0 0,9.35301 -1.79651,0 -3.04776,-4.30602 q -0.80389,-1.11845 -1.66369,-2.5934 l -0.0419,0 q 0.0839,1.71961 0.0839,2.6633 l 0,4.23612 -1.71262,0 0,-9.35301 1.7965,0 3.07573,4.34796 z" />
      <path
         id="path4326"
         style="font-size:14.31612206px;text-align:start;text-anchor:start"
         d="m 471.34884,444.69474 -3.52311,0 -0.91573,2.38369 -1.82447,0 3.71185,-9.35301 1.56582,0 3.71185,9.35301 -1.81049,0 -0.91572,-2.38369 z m -1.77554,-4.71845 q -0.48932,1.46796 -0.87379,2.45359 l -0.32155,0.83185 2.41864,0 -0.32155,-0.83185 q -0.38447,-0.99262 -0.87379,-2.45359 l -0.028,0 z" />
      <path
         id="path4328"
         style="font-size:14.31612206px;text-align:start;text-anchor:start"
         d="m 481.09331,443.50639 -2.09709,0 0,-1.43301 3.80971,0 0,4.71845 q -0.20971,0.0769 -0.53825,0.16077 -0.32156,0.0839 -0.72699,0.1468 -0.39845,0.0699 -0.82486,0.11185 -0.42641,0.0419 -0.84582,0.0419 -1.25826,0 -2.20195,-0.33554 -0.9367,-0.34252 -1.56582,-0.95767 -0.62214,-0.61514 -0.9367,-1.46097 -0.30758,-0.85281 -0.30758,-1.88039 0,-0.72699 0.16078,-1.38408 0.16777,-0.66407 0.48233,-1.2233 0.32156,-0.56621 0.77592,-1.02058 0.45437,-0.45437 1.03457,-0.77592 0.58718,-0.32156 1.27922,-0.48932 0.69903,-0.17476 1.49592,-0.17476 0.70602,0 1.34214,0.10485 0.63612,0.0979 1.04156,0.24466 l 0,1.45399 q -0.54525,-0.17476 -1.10447,-0.26564 -0.55223,-0.0909 -1.11845,-0.0909 -0.76194,0 -1.42602,0.23068 -0.66408,0.22369 -1.1534,0.67107 -0.48233,0.44039 -0.76194,1.09048 -0.27961,0.6501 -0.27961,1.50292 0.007,1.6567 0.8668,2.48854 0.8598,0.82486 2.43961,0.82486 0.29359,0 0.60815,-0.028 0.31457,-0.035 0.55224,-0.0839 l 0,-2.18796 z" />
      <path
         id="path4330"
         style="font-size:14.31612206px;text-align:start;text-anchor:start"
         d="m 486.60866,445.64542 4.59961,0 0,1.43301 -6.31224,0 0,-9.35301 6.06059,0 0,1.43301 -4.34796,0 0,2.41864 3.73281,0 0,1.43301 -3.73281,0 0,2.63534 z" />
      <path
         id="path4332"
         style="font-size:14.31612206px;text-align:start;text-anchor:start"
         d="m 497.84205,444.56891 q 0.30757,-1.10446 0.76194,-2.36971 l 1.61476,-4.47378 2.40466,0 0,9.35301 -1.71263,0 0,-4.73942 q 0,-1.04155 0.0839,-2.41864 l -0.0629,0 q -0.11884,0.39845 -0.27962,0.89476 -0.16077,0.49631 -0.33553,0.97864 l -1.93631,5.28466 -1.10447,0 -1.93631,-5.28466 q -0.17476,-0.48233 -0.33553,-0.97864 -0.16078,-0.49631 -0.27962,-0.89476 l -0.0629,0 q 0.0839,1.2932 0.0839,2.41165 l 0,4.74641 -1.71263,0 0,-9.35301 2.39068,0 1.61476,4.45281 q 0.40544,1.11146 0.76194,2.39068 l 0.0419,0 z" />
      <path
         id="path4334"
         style="font-size:14.31612206px;text-align:start;text-anchor:start"
         d="m 506.57292,445.64542 4.59961,0 0,1.43301 -6.31223,0 0,-9.35301 6.06058,0 0,1.43301 -4.34796,0 0,2.41864 3.73282,0 0,1.43301 -3.73282,0 0,2.63534 z" />
      <path
         id="path4336"
         style="font-size:14.31612206px;text-align:start;text-anchor:start"
         d="m 517.86925,442.07338 q 1.0066,1.43301 1.63573,2.54447 l 0.0419,0 q -0.0839,-1.82447 -0.0839,-2.65632 l 0,-4.23611 1.71262,0 0,9.35301 -1.7965,0 -3.04777,-4.30602 q -0.80389,-1.11845 -1.66369,-2.5934 l -0.0419,0 q 0.0839,1.71961 0.0839,2.6633 l 0,4.23612 -1.71262,0 0,-9.35301 1.7965,0 3.07573,4.34796 z" />
      <path
         id="path4338"
         style="font-size:14.31612206px;text-align:start;text-anchor:start"
         d="m 527.25021,447.07843 -1.71262,0 0,-7.92 -3.01981,0 0,-1.43301 7.74525,0 0,1.43301 -3.01282,0 0,7.92 z" />
    </g>
    <path
       id="circle8499"
       d="m 176.1994,289.17912 a 75,75 0 0 0 -75,75 75,75 0 0 0 38.74414,65.6347 l 72.37696,0 a 75,75 0 0 0 2.76563,-1.5859 c -14.16463,-4.6783 -22.42659,-17.953 -23.05665,-42.6582 -0.82406,-32.3114 17.78316,-44.1632 38.41212,-44.8125 6.73457,-0.212 12.5935,1.0849 18.22851,4.2637 a 75,75 0 0 0 -72.47071,-55.8418 z"
       style="fill:none;fill-opacity:1;stroke:#000000;stroke-width:0.34999999;stroke-linejoin:round;stroke-miterlimit:4;stroke-dasharray:none;stroke-opacity:1" />
  </g>
</svg>
