<?xml version="1.0" encoding="UTF-8" standalone="no"?>
<svg
   xmlns:dc="http://purl.org/dc/elements/1.1/"
   xmlns:cc="http://creativecommons.org/ns#"
   xmlns:rdf="http://www.w3.org/1999/02/22-rdf-syntax-ns#"
   xmlns:svg="http://www.w3.org/2000/svg"
   xmlns="http://www.w3.org/2000/svg"
   xmlns:xlink="http://www.w3.org/1999/xlink"
   width="105.16248mm"
   height="40.687mm"
   viewBox="0 0 372.62297 144.16654"
   id="svg4181"
   version="1.1">
  <defs
     id="defs4183">
    <linearGradient
       id="linearGradient4818">
      <stop
         style="stop-color:#2a848e;stop-opacity:1"
         offset="0"
         id="stop4820" />
      <stop
         id="stop4826"
         offset="0.51716304"
         style="stop-color:#83b4b5;stop-opacity:1" />
      <stop
         style="stop-color:#b7c9c6;stop-opacity:1"
         offset="1"
         id="stop4822" />
    </linearGradient>
    <linearGradient
       xlink:href="#linearGradient4818"
       id="linearGradient4824"
       x1="147.10713"
       y1="351.64792"
       x2="255.74998"
       y2="351.64792"
       gradientUnits="userSpaceOnUse"
       gradientTransform="matrix(0,1,-1,0,423.63078,-129.39031)" />
  </defs>
  <metadata
     id="metadata4186">
    <rdf:RDF>
      <cc:Work
         rdf:about="">
        <dc:format>image/svg+xml</dc:format>
        <dc:type
           rdf:resource="http://purl.org/dc/dcmitype/StillImage" />
        <dc:title></dc:title>
      </cc:Work>
    </rdf:RDF>
  </metadata>
  <path
     id="path4813"
     d="M 71.98203,18.525 A 53.512959,53.512959 0 0 0 18.54844,70.47031 l 66.49414,0 A 34.417076,36.404156 0 0 1 108.76914,60.41562 34.417076,36.404156 0 0 1 124.93516,64.70078 53.512959,53.512959 0 0 0 71.98203,18.525 Z M 18.525,73.60508 a 53.512959,53.512959 0 0 0 1.23828,9.83008 l 57.03125,0 a 34.417076,36.404156 0 0 1 5.47852,-9.83008 l -63.74805,0 z m 2.05664,12.96484 a 53.512959,53.512959 0 0 0 3.86328,9.82813 l 49.92579,0 a 34.417076,36.404156 0 0 1 1.39453,-9.82813 l -55.1836,0 z m 5.66407,12.96289 a 53.512959,53.512959 0 0 0 7.64257,9.82813 l 42.59961,0 a 34.417076,36.404156 0 0 1 -2.03515,-9.82813 l -48.20703,0 z m 10.94531,12.96289 a 53.512959,53.512959 0 0 0 34.79101,13.05469 53.512959,53.512959 0 0 0 13.61524,-1.875 34.417076,36.404156 0 0 1 -7.85547,-11.17969 l -40.55078,0 z"
     style="fill:url(#linearGradient4824);fill-opacity:1;stroke:#2a848e;stroke-width:1.61693835;stroke-linejoin:round;stroke-miterlimit:4;stroke-dasharray:none;stroke-opacity:1" />
  <g
     id="text4809"
     style="font-style:normal;font-weight:normal;font-size:76.35390472px;line-height:125%;font-family:sans-serif;letter-spacing:0px;word-spacing:0px;fill:#bfac82;fill-opacity:1;stroke:#a08852;stroke-width:2.86327124;stroke-linecap:butt;stroke-linejoin:miter;stroke-miterlimit:4;stroke-dasharray:none;stroke-opacity:1">
    <path
       id="path3377"
       style="font-style:normal;font-variant:normal;font-weight:normal;font-stretch:normal;font-family:'Arial Rounded MT Bold';-inkscape-font-specification:'Arial Rounded MT Bold, ';fill:#bfac82;fill-opacity:1;stroke:#a08852;stroke-width:2.86327124;stroke-miterlimit:4;stroke-dasharray:none;stroke-opacity:1"
       d="m 130.52736,106.82466 q 0,2.60975 -1.30487,5.66689 -1.2676,3.01986 -4.02648,5.96515 -2.75888,2.90801 -7.04633,4.73484 -4.28745,1.82683 -9.99162,1.82683 -4.32474,0 -7.86654,-0.82021 -3.541811,-0.82021 -6.449821,-2.53519 -2.870728,-1.75226 -5.294069,-4.58571 -2.162367,-2.57247 -3.690936,-5.74145 -1.528569,-3.20627 -2.311495,-6.82264 -0.745644,-3.61637 -0.745644,-7.680132 0,-6.598946 1.901391,-11.818451 1.938674,-5.219506 5.517763,-8.910441 3.579089,-3.728218 8.38849,-5.666892 4.809401,-1.938673 10.252601,-1.938673 6.63623,0 11.81845,2.647035 5.18222,2.647034 7.9411,6.561663 2.75889,3.877347 2.75889,7.34459 0,1.901391 -1.34216,3.355396 -1.34216,1.454005 -3.24355,1.454005 -2.12509,0 -3.20627,-1.006619 -1.0439,-1.006619 -2.34878,-3.467243 -2.16236,-4.063757 -5.10766,-6.076995 -2.90801,-2.013238 -7.19546,-2.013238 -6.82264,0 -10.886393,5.182223 -4.026476,5.182223 -4.026476,14.726462 0,6.37525 1.789545,10.62542 1.789545,4.21289 5.070376,6.30069 3.280828,2.0878 7.680128,2.0878 4.77212,0 8.05295,-2.34878 3.31812,-2.38606 4.99581,-6.97176 0.70837,-2.16237 1.75227,-3.50453 1.0439,-1.37944 3.35539,-1.37944 1.97596,0 3.39268,1.37944 1.41672,1.37944 1.41672,3.42996 z" />
    <path
       id="path3379"
       style="font-style:normal;font-variant:normal;font-weight:normal;font-stretch:normal;font-family:'Arial Rounded MT Bold';-inkscape-font-specification:'Arial Rounded MT Bold, ';fill:#bfac82;fill-opacity:1;stroke:#a08852;stroke-width:2.86327124;stroke-miterlimit:4;stroke-dasharray:none;stroke-opacity:1"
       d="m 155.3573,100.71038 -3.87735,0 0,17.55991 q 0,3.46724 -1.52857,5.10766 -1.52857,1.64042 -3.98919,1.64042 -2.64704,0 -4.10104,-1.71498 -1.45401,-1.71498 -1.45401,-5.0331 l 0,-42.054298 q 0,-3.579089 1.60314,-5.182223 1.60313,-1.603134 5.18222,-1.603134 l 18.00729,0 q 3.72822,0 6.37526,0.33554 2.64703,0.298257 4.77212,1.267594 2.57247,1.081183 4.54842,3.094421 1.97596,2.013238 2.98258,4.697555 1.0439,2.647035 1.0439,5.629609 0,6.114277 -3.46725,9.767931 -3.42996,3.653654 -10.43901,5.182223 2.9453,1.565852 5.62961,4.622992 2.68432,3.05714 4.77212,6.52438 2.12509,3.42996 3.28083,6.22612 1.19303,2.75889 1.19303,3.80279 0,1.08118 -0.70836,2.16236 -0.67108,1.0439 -1.86411,1.64042 -1.19303,0.6338 -2.75888,0.6338 -1.86411,0 -3.1317,-0.89478 -1.2676,-0.85749 -2.19965,-2.19965 -0.89477,-1.34215 -2.46062,-3.95191 l -4.43658,-7.38187 q -2.38606,-4.06376 -4.28745,-6.18884 -1.86411,-2.12508 -3.80279,-2.90801 -1.93867,-0.78293 -4.88396,-0.78293 z m 6.33797,-22.965818 -10.21532,0 0,15.024718 9.91706,0 q 3.98919,0 6.71079,-0.671079 2.7216,-0.708362 4.13833,-2.348777 1.454,-1.677699 1.454,-4.585709 0,-2.274213 -1.15575,-3.989193 -1.15574,-1.752262 -3.20626,-2.609752 -1.93868,-0.820208 -7.64285,-0.820208 z" />
    <path
       id="path3381"
       style="font-style:normal;font-variant:normal;font-weight:normal;font-stretch:normal;font-family:'Arial Rounded MT Bold';-inkscape-font-specification:'Arial Rounded MT Bold, ';fill:#bfac82;fill-opacity:1;stroke:#a08852;stroke-width:2.86327124;stroke-miterlimit:4;stroke-dasharray:none;stroke-opacity:1"
       d="m 231.37566,77.968255 -24.94178,0 0,13.421584 22.96583,0 q 2.53518,0 3.7655,1.155748 1.26759,1.118465 1.26759,2.982574 0,1.864109 -1.23031,3.057139 -1.23031,1.155748 -3.80278,1.155748 l -22.96583,0 0,15.546672 25.79927,0 q 2.60975,0 3.91463,1.23031 1.34216,1.19303 1.34216,3.20627 0,1.93867 -1.34216,3.16898 -1.30488,1.19303 -3.91463,1.19303 l -30.08672,0 q -3.61637,0 -5.2195,-1.60313 -1.56585,-1.60314 -1.56585,-5.18223 l 0,-41.084958 q 0,-2.386059 0.70836,-3.877347 0.70836,-1.528569 2.19965,-2.199648 1.52857,-0.708362 3.87734,-0.708362 l 29.22923,0 q 2.64704,0 3.91463,1.19303 1.30488,1.155748 1.30488,3.057139 0,1.938673 -1.30488,3.131703 -1.26759,1.155748 -3.91463,1.155748 z" />
    <path
       id="path3383"
       style="font-style:normal;font-variant:normal;font-weight:normal;font-stretch:normal;font-family:'Arial Rounded MT Bold';-inkscape-font-specification:'Arial Rounded MT Bold, ';fill:#bfac82;fill-opacity:1;stroke:#a08852;stroke-width:2.86327124;stroke-miterlimit:4;stroke-dasharray:none;stroke-opacity:1"
       d="m 281.33379,117.89747 -2.60975,-6.85992 -22.22018,0 -2.60975,7.00905 q -1.52857,4.10104 -2.60976,5.55504 -1.08118,1.41673 -3.5418,1.41673 -2.08781,0 -3.69094,-1.52857 -1.60313,-1.52857 -1.60313,-3.46725 0,-1.11846 0.37282,-2.31149 0.37282,-1.19303 1.23031,-3.31812 l 13.98082,-35.492631 q 0.59651,-1.528569 1.41672,-3.653654 0.85749,-2.162366 1.78955,-3.579089 0.96933,-1.416723 2.4979,-2.274213 1.56585,-0.894772 3.84007,-0.894772 2.31149,0 3.84006,0.894772 1.56585,0.85749 2.49791,2.236931 0.96933,1.379441 1.60313,2.982574 0.67108,1.565852 1.6777,4.212887 l 14.27907,35.268945 q 1.6777,4.02647 1.6777,5.8533 0,1.90139 -1.60313,3.50452 -1.56585,1.56586 -3.80278,1.56586 -1.30488,0 -2.23694,-0.48467 -0.93205,-0.44739 -1.56585,-1.23031 -0.63379,-0.82021 -1.37944,-2.46063 -0.70836,-1.6777 -1.23031,-2.94529 z m -21.92192,-15.17385 16.32959,0 -8.23936,-22.555717 -8.09023,22.555717 z" />
    <path
       id="path3385"
       style="font-style:normal;font-variant:normal;font-weight:normal;font-stretch:normal;font-family:'Arial Rounded MT Bold';-inkscape-font-specification:'Arial Rounded MT Bold, ';fill:#bfac82;fill-opacity:1;stroke:#a08852;stroke-width:2.86327124;stroke-miterlimit:4;stroke-dasharray:none;stroke-opacity:1"
       d="m 319.69715,115.84695 -8.76131,-34.821557 0,37.729567 q 0,3.1317 -1.41673,4.69755 -1.37944,1.56586 -3.69093,1.56586 -2.23693,0 -3.65366,-1.52857 -1.41672,-1.56586 -1.41672,-4.73484 l 0,-43.247329 q 0,-3.57909 1.86411,-4.809401 1.86411,-1.267595 5.03309,-1.267595 l 3.42997,0 q 3.09442,0 4.47386,0.559233 1.41672,0.559233 2.0878,2.013238 0.67108,1.454005 1.52857,4.734837 l 7.9411,29.937587 7.94111,-29.937587 q 0.85749,-3.280832 1.52857,-4.734837 0.67108,-1.454005 2.05052,-2.013238 1.41672,-0.559233 4.51114,-0.559233 l 3.42996,0 q 3.16899,0 5.03309,1.267595 1.86411,1.230311 1.86411,4.809401 l 0,43.247329 q 0,3.1317 -1.41672,4.69755 -1.37944,1.56586 -3.72822,1.56586 -2.19965,0 -3.61637,-1.56586 -1.41672,-1.56585 -1.41672,-4.69755 l 0,-37.729567 -8.76131,34.821557 q -0.85749,3.39268 -1.41673,4.99581 -0.52195,1.56585 -1.97595,2.87073 -1.45401,1.30488 -4.02648,1.30488 -1.93867,0 -3.28083,-0.85749 -1.34216,-0.82021 -2.0878,-2.12509 -0.74564,-1.30487 -1.19303,-2.87073 -0.41011,-1.60313 -0.85749,-3.31811 z" />
  </g>
</svg>
